<svg version="1.2" baseProfile="tiny-ps" xmlns="http://www.w3.org/2000/svg" viewBox="0 0 1100 1200" width="1100" height="100%">
	<title>abaut-1-svg</title>
	<style>
		tspan { white-space:pre }
		.shp0 { fill: #f79c77 } 
		.shp1 { fill: #ffffff }

@-webkit-keyframes animate-svg-fill-1 {
  0% {
    fill: transparent;
  }

  100% {
    fill: rgb(247, 156, 119);
  }
}

@keyframes animate-svg-fill-1 {
  0% {
    fill: transparent;
  }

  100% {
    fill: rgb(247, 156, 119);
  }
}

.svg-elem-1 {
  -webkit-animation: animate-svg-fill-1 0.7s cubic-bezier(0.47, 0, 0.745, 0.715) 0.8s both;
          animation: animate-svg-fill-1 0.7s cubic-bezier(0.47, 0, 0.745, 0.715) 0.8s both;
}

@-webkit-keyframes animate-svg-fill-2 {
  0% {
    fill: transparent;
  }

  100% {
    fill: rgb(247, 156, 119);
  }
}

@keyframes animate-svg-fill-2 {
  0% {
    fill: transparent;
  }

  100% {
    fill: rgb(247, 156, 119);
  }
}

.svg-elem-2 {
  -webkit-animation: animate-svg-fill-2 0.7s cubic-bezier(0.47, 0, 0.745, 0.715) 0.9s both;
          animation: animate-svg-fill-2 0.7s cubic-bezier(0.47, 0, 0.745, 0.715) 0.9s both;
}

@-webkit-keyframes animate-svg-fill-3 {
  0% {
    fill: transparent;
  }

  100% {
    fill: rgb(247, 156, 119);
  }
}

@keyframes animate-svg-fill-3 {
  0% {
    fill: transparent;
  }

  100% {
    fill: rgb(247, 156, 119);
  }
}

.svg-elem-3 {
  -webkit-animation: animate-svg-fill-3 0.7s cubic-bezier(0.47, 0, 0.745, 0.715) 1s both;
          animation: animate-svg-fill-3 0.7s cubic-bezier(0.47, 0, 0.745, 0.715) 1s both;
}

@-webkit-keyframes animate-svg-fill-4 {
  0% {
    fill: transparent;
  }

  100% {
    fill: rgb(247, 156, 119);
  }
}

@keyframes animate-svg-fill-4 {
  0% {
    fill: transparent;
  }

  100% {
    fill: rgb(247, 156, 119);
  }
}

.svg-elem-4 {
  -webkit-animation: animate-svg-fill-4 0.7s cubic-bezier(0.47, 0, 0.745, 0.715) 1.1s both;
          animation: animate-svg-fill-4 0.7s cubic-bezier(0.47, 0, 0.745, 0.715) 1.1s both;
}

@-webkit-keyframes animate-svg-fill-5 {
  0% {
    fill: transparent;
  }

  100% {
    fill: rgb(255, 255, 255);
  }
}

@keyframes animate-svg-fill-5 {
  0% {
    fill: transparent;
  }

  100% {
    fill: rgb(255, 255, 255);
  }
}

.svg-elem-5 {
  -webkit-animation: animate-svg-fill-5 0.7s cubic-bezier(0.47, 0, 0.745, 0.715) 1.2000000000000002s both;
          animation: animate-svg-fill-5 0.7s cubic-bezier(0.47, 0, 0.745, 0.715) 1.2000000000000002s both;
}

@-webkit-keyframes animate-svg-fill-6 {
  0% {
    fill: transparent;
  }

  100% {
    fill: rgb(255, 255, 255);
  }
}

@keyframes animate-svg-fill-6 {
  0% {
    fill: transparent;
  }

  100% {
    fill: rgb(255, 255, 255);
  }
}

.svg-elem-6 {
  -webkit-animation: animate-svg-fill-6 0.7s cubic-bezier(0.47, 0, 0.745, 0.715) 1.3s both;
          animation: animate-svg-fill-6 0.7s cubic-bezier(0.47, 0, 0.745, 0.715) 1.3s both;
}

@-webkit-keyframes animate-svg-fill-7 {
  0% {
    fill: transparent;
  }

  100% {
    fill: rgb(255, 255, 255);
  }
}

@keyframes animate-svg-fill-7 {
  0% {
    fill: transparent;
  }

  100% {
    fill: rgb(255, 255, 255);
  }
}

.svg-elem-7 {
  -webkit-animation: animate-svg-fill-7 0.7s cubic-bezier(0.47, 0, 0.745, 0.715) 1.4000000000000001s both;
          animation: animate-svg-fill-7 0.7s cubic-bezier(0.47, 0, 0.745, 0.715) 1.4000000000000001s both;
}

@-webkit-keyframes animate-svg-fill-8 {
  0% {
    fill: transparent;
  }

  100% {
    fill: rgb(255, 255, 255);
  }
}

@keyframes animate-svg-fill-8 {
  0% {
    fill: transparent;
  }

  100% {
    fill: rgb(255, 255, 255);
  }
}

.svg-elem-8 {
  -webkit-animation: animate-svg-fill-8 0.7s cubic-bezier(0.47, 0, 0.745, 0.715) 1.5s both;
          animation: animate-svg-fill-8 0.7s cubic-bezier(0.47, 0, 0.745, 0.715) 1.5s both;
}

@-webkit-keyframes animate-svg-fill-9 {
  0% {
    fill: transparent;
  }

  100% {
    fill: rgb(255, 255, 255);
  }
}

@keyframes animate-svg-fill-9 {
  0% {
    fill: transparent;
  }

  100% {
    fill: rgb(255, 255, 255);
  }
}

.svg-elem-9 {
  -webkit-animation: animate-svg-fill-9 0.7s cubic-bezier(0.47, 0, 0.745, 0.715) 1.6s both;
          animation: animate-svg-fill-9 0.7s cubic-bezier(0.47, 0, 0.745, 0.715) 1.6s both;
}

@-webkit-keyframes animate-svg-fill-10 {
  0% {
    fill: transparent;
  }

  100% {
    fill: rgb(255, 255, 255);
  }
}

@keyframes animate-svg-fill-10 {
  0% {
    fill: transparent;
  }

  100% {
    fill: rgb(255, 255, 255);
  }
}

.svg-elem-10 {
  -webkit-animation: animate-svg-fill-10 0.7s cubic-bezier(0.47, 0, 0.745, 0.715) 1.7000000000000002s both;
          animation: animate-svg-fill-10 0.7s cubic-bezier(0.47, 0, 0.745, 0.715) 1.7000000000000002s both;
}

@-webkit-keyframes animate-svg-fill-11 {
  0% {
    fill: transparent;
  }

  100% {
    fill: rgb(247, 156, 119);
  }
}

@keyframes animate-svg-fill-11 {
  0% {
    fill: transparent;
  }

  100% {
    fill: rgb(247, 156, 119);
  }
}

.svg-elem-11 {
  -webkit-animation: animate-svg-fill-11 0.7s cubic-bezier(0.47, 0, 0.745, 0.715) 1.8s both;
          animation: animate-svg-fill-11 0.7s cubic-bezier(0.47, 0, 0.745, 0.715) 1.8s both;
}

@-webkit-keyframes animate-svg-fill-12 {
  0% {
    fill: transparent;
  }

  100% {
    fill: rgb(247, 156, 119);
  }
}

@keyframes animate-svg-fill-12 {
  0% {
    fill: transparent;
  }

  100% {
    fill: rgb(247, 156, 119);
  }
}

.svg-elem-12 {
  -webkit-animation: animate-svg-fill-12 0.7s cubic-bezier(0.47, 0, 0.745, 0.715) 1.9000000000000001s both;
          animation: animate-svg-fill-12 0.7s cubic-bezier(0.47, 0, 0.745, 0.715) 1.9000000000000001s both;
}

@-webkit-keyframes animate-svg-fill-13 {
  0% {
    fill: transparent;
  }

  100% {
    fill: rgb(247, 156, 119);
  }
}

@keyframes animate-svg-fill-13 {
  0% {
    fill: transparent;
  }

  100% {
    fill: rgb(247, 156, 119);
  }
}

.svg-elem-13 {
  -webkit-animation: animate-svg-fill-13 0.7s cubic-bezier(0.47, 0, 0.745, 0.715) 2s both;
          animation: animate-svg-fill-13 0.7s cubic-bezier(0.47, 0, 0.745, 0.715) 2s both;
}

@-webkit-keyframes animate-svg-fill-14 {
  0% {
    fill: transparent;
  }

  100% {
    fill: rgb(247, 156, 119);
  }
}

@keyframes animate-svg-fill-14 {
  0% {
    fill: transparent;
  }

  100% {
    fill: rgb(247, 156, 119);
  }
}

.svg-elem-14 {
  -webkit-animation: animate-svg-fill-14 0.7s cubic-bezier(0.47, 0, 0.745, 0.715) 2.1s both;
          animation: animate-svg-fill-14 0.7s cubic-bezier(0.47, 0, 0.745, 0.715) 2.1s both;
}

@-webkit-keyframes animate-svg-fill-15 {
  0% {
    fill: transparent;
  }

  100% {
    fill: rgb(247, 156, 119);
  }
}

@keyframes animate-svg-fill-15 {
  0% {
    fill: transparent;
  }

  100% {
    fill: rgb(247, 156, 119);
  }
}

.svg-elem-15 {
  -webkit-animation: animate-svg-fill-15 0.7s cubic-bezier(0.47, 0, 0.745, 0.715) 2.2s both;
          animation: animate-svg-fill-15 0.7s cubic-bezier(0.47, 0, 0.745, 0.715) 2.2s both;
}

@-webkit-keyframes animate-svg-fill-16 {
  0% {
    fill: transparent;
  }

  100% {
    fill: rgb(247, 156, 119);
  }
}

@keyframes animate-svg-fill-16 {
  0% {
    fill: transparent;
  }

  100% {
    fill: rgb(247, 156, 119);
  }
}

.svg-elem-16 {
  -webkit-animation: animate-svg-fill-16 0.7s cubic-bezier(0.47, 0, 0.745, 0.715) 2.3s both;
          animation: animate-svg-fill-16 0.7s cubic-bezier(0.47, 0, 0.745, 0.715) 2.3s both;
}

@-webkit-keyframes animate-svg-fill-17 {
  0% {
    fill: transparent;
  }

  100% {
    fill: rgb(247, 156, 119);
  }
}

@keyframes animate-svg-fill-17 {
  0% {
    fill: transparent;
  }

  100% {
    fill: rgb(247, 156, 119);
  }
}

.svg-elem-17 {
  -webkit-animation: animate-svg-fill-17 0.7s cubic-bezier(0.47, 0, 0.745, 0.715) 2.4000000000000004s both;
          animation: animate-svg-fill-17 0.7s cubic-bezier(0.47, 0, 0.745, 0.715) 2.4000000000000004s both;
}

@-webkit-keyframes animate-svg-fill-18 {
  0% {
    fill: transparent;
  }

  100% {
    fill: rgb(247, 156, 119);
  }
}

@keyframes animate-svg-fill-18 {
  0% {
    fill: transparent;
  }

  100% {
    fill: rgb(247, 156, 119);
  }
}

.svg-elem-18 {
  -webkit-animation: animate-svg-fill-18 0.7s cubic-bezier(0.47, 0, 0.745, 0.715) 2.5s both;
          animation: animate-svg-fill-18 0.7s cubic-bezier(0.47, 0, 0.745, 0.715) 2.5s both;
}

@-webkit-keyframes animate-svg-fill-19 {
  0% {
    fill: transparent;
  }

  100% {
    fill: rgb(247, 156, 119);
  }
}

@keyframes animate-svg-fill-19 {
  0% {
    fill: transparent;
  }

  100% {
    fill: rgb(247, 156, 119);
  }
}

.svg-elem-19 {
  -webkit-animation: animate-svg-fill-19 0.7s cubic-bezier(0.47, 0, 0.745, 0.715) 2.6s both;
          animation: animate-svg-fill-19 0.7s cubic-bezier(0.47, 0, 0.745, 0.715) 2.6s both;
}

	</style>
	<g id="maninsise">
		<g id="Compound">
			<g id="Compound">
				<path id="Compound" class="shp0 svg-elem-1" d="M795 322.97C794.54 322.97 794.1 322.88 793.54 322.74C792.18 322.39 791 321.51 790.29 320.29C788.47 317.14 788.47 317.14 801.11 296.35C801.47 295.75 801.85 295.13 802.23 294.51C799.21 296.27 796.12 298.08 793.33 299.71C772.7 311.79 772.7 311.8 770.44 311.19C769.09 310.83 767.93 309.95 767.23 308.74C765.26 305.34 765.19 305.23 782.29 282.77C777.84 285.27 777.37 285.14 775.78 284.71C774.43 284.36 773.28 283.47 772.58 282.26C770.6 278.83 770.52 278.7 787.67 256.73C773.49 265 773.22 264.93 771.22 264.4C769.86 264.05 768.69 263.15 767.99 261.92C766.06 258.55 766.06 258.55 781.36 239.09C784.57 235 788.59 229.9 791.99 225.5C791.88 225.34 791.77 225.18 791.67 225.02C790.37 222.73 790.37 222.73 794.94 208.57C795.8 205.92 796.88 202.56 797.75 199.78C797.66 199.64 797.56 199.49 797.48 199.34C795.8 196.47 795.74 196.36 805.09 180.94C805.08 180.94 805.08 180.94 805.08 180.94C799.87 183.97 794.43 187.14 790.3 189.53C781.46 194.65 778.79 196.2 776.11 191.6C774.06 188.05 774.02 187.97 792.5 163.5C784.86 167.9 784.46 167.78 782.72 167.32C781.36 166.96 780.21 166.07 779.51 164.86C777.22 160.89 777.14 160.75 795.82 143.36C795.63 143.18 795.45 142.98 795.26 142.76C794.59 142.2 793.23 141.1 791.81 139.94C790.88 139.18 790.1 138.55 789.45 138.02C788.76 138.43 787.99 138.88 787.19 139.35C777.54 145.04 777.54 145.04 775.29 144.46L776.63 139.37L781.17 136.72L776.62 139.36L774.44 134.59C775.16 134.22 779.18 131.85 781.85 130.28C789.18 125.96 789.18 125.97 791.36 126.55C792.26 126.79 793.07 127.25 793.72 127.9C794.34 128.44 796.46 130.16 798.44 131.77C798.93 132.17 799.38 132.53 799.77 132.85C802.02 131.55 805.18 129.69 807.75 128.18C819.18 121.46 819.17 121.46 821.43 122.05C822.77 122.41 823.92 123.3 824.62 124.51C826.69 128.08 826.98 128.6 813.32 141.43C814.49 141.85 815.47 142.67 816.1 143.75C818.04 147.14 818.04 147.14 802.13 168.2C801.17 169.47 800.14 170.84 799.07 172.26C799.31 172.12 799.55 171.98 799.79 171.84C818.78 160.79 818.76 160.79 820.97 161.39C822.31 161.75 823.46 162.62 824.16 163.83C825.93 166.87 825.93 166.87 815.26 184.45C813.45 187.44 811.27 191.04 809.59 193.87C810.19 195.61 809.38 198.1 804.96 211.81C804.86 212.11 804.76 212.42 804.65 212.73C804.82 212.76 804.98 212.8 805.16 212.85C806.53 213.2 807.71 214.09 808.41 215.32C810.42 218.82 810.53 219 792.82 241.53C806.9 233.3 807.03 233.34 809.1 233.9C810.46 234.25 811.62 235.13 812.31 236.34C814.29 239.75 814.29 239.75 798.15 260.42C797.71 260.97 797.27 261.54 796.82 262.12C800.93 259.86 801.46 260 802.96 260.39C804.32 260.74 805.48 261.63 806.19 262.84C808.14 266.2 808.14 266.2 792.38 286.89C791.86 287.58 791.31 288.3 790.75 289.03C815.49 274.55 815.6 274.56 817.87 275.18C819.23 275.53 820.38 276.42 821.08 277.62C822.91 280.76 822.91 280.76 810.1 301.81C809.12 303.42 808.06 305.18 806.99 306.94L805.88 311.25L803.61 312.56L805.88 311.25L807.98 316.05C807.3 316.39 805.35 317.59 803.35 318.8C797.98 322.04 796.44 322.97 795 322.97Z"></path>
			</g>
			<g id="Compound">
				<path id="Compound" fill-rule="evenodd" class="shp0 svg-elem-2" d="M447.13 336.45C446.75 336.45 446.43 336.41 446.14 336.34C444.78 335.98 443.45 334.98 442.74 333.76C438.69 326.74 438.06 325.66 600.62 223.52C610.05 217.6 619.82 211.46 629.64 205.28C613.69 214.86 597.61 224.56 582.32 233.78C434.29 323.03 417.97 331.77 412.55 330.38C411.18 330.03 409.84 329.02 409.13 327.8C406.27 322.85 405.35 321.26 469.73 280.18C387.53 329.17 371.51 336.95 366.53 335.66C365.16 335.31 363.73 334.25 363.02 333.03C362.06 331.36 361.34 330.11 362.97 327.9C356.58 330.85 353.69 331.4 351.98 330.96C350.6 330.61 349.17 329.54 348.45 328.32C344.61 321.65 344.38 321.25 501.11 220.48C507.92 216.1 514.83 211.66 521.74 207.21C509.09 214.78 496.46 222.36 484.34 229.62C334.96 319.16 327.01 322.81 322.39 321.61C321.02 321.25 319.73 320.28 319.02 319.06C317.57 316.54 318.43 313.33 320.95 311.87C321.79 311.39 322.63 311.1 323.63 311.17C334.24 307.32 411.02 261.3 478.92 220.6C633.6 127.88 642.48 123.81 647.25 125.05C648.62 125.41 649.92 126.39 650.63 127.61C654.38 134.11 654.52 134.36 506.81 229.33C490.41 239.87 473 251.07 456.06 262.01C475.78 250.11 496.24 237.68 515.37 226.06C650.24 144.1 666.32 135.53 671.91 136.96C673.29 137.31 674.68 138.34 675.38 139.57C676.29 141.14 677.04 142.44 675.67 144.68C699.09 131.27 702.18 130.66 704.65 131.29C706.02 131.64 707.32 132.62 708.02 133.84C711.64 140.11 711.79 140.39 588.9 217.52C732.03 131.3 749.44 122.12 754.98 123.54C756.35 123.89 757.71 124.91 758.42 126.13C762.43 133.07 762.95 133.97 606.22 232.43C590.35 242.41 573.54 252.97 557.08 263.37C580.93 249.15 605.98 234.13 629.31 220.14C789.68 123.95 798.15 120.03 803 121.27C804.36 121.62 805.66 122.6 806.37 123.82C808.67 127.82 809.92 129.97 780.03 149.16C780.94 149.64 781.74 150.38 782.25 151.26C785.45 156.81 786.06 157.86 701.01 211.64C787.11 160.16 792.99 157.91 796.9 158.91C798.27 159.26 799.57 160.24 800.27 161.46C803.2 166.52 803.86 167.67 750.1 201.5C777.15 185.79 780.52 185.09 783.23 185.79C784.6 186.14 785.93 187.14 786.64 188.36C789.5 193.32 790.32 194.75 738.54 228.52C771.82 209.03 773.08 209.35 775.63 210.01C777 210.36 778.25 211.31 778.96 212.53C781.06 216.17 781.98 217.75 762.55 231.52C803.33 207.31 804.51 207.59 807.27 208.3C808.63 208.66 809.89 209.6 810.59 210.82C813.01 215 813.7 216.2 779.66 238.82C783.6 236.97 784.43 237.18 785.62 237.49C786.99 237.85 788.21 238.77 788.91 239.99C790.87 243.38 791.59 244.63 777.52 254.54C777.62 254.56 777.71 254.59 777.8 254.61C779.17 254.97 780.38 255.88 781.08 257.1C783.6 261.46 783.76 261.75 754.15 286.76C785.37 267.91 785.57 267.96 788.45 268.7C789.82 269.05 791.02 269.96 791.73 271.18C793.59 274.41 794.14 275.36 782.96 284.62C794.4 277.98 795.06 278.15 797.02 278.66C798.38 279.02 799.57 279.92 800.27 281.14C802.36 284.75 802.36 284.75 785.07 306.1C784.78 306.46 784.49 306.82 784.19 307.18L783.37 310.41L779.98 312.39L783.37 310.41L785.5 315.2C784.88 315.51 781.82 317.34 779.59 318.68C769.28 324.89 769.29 324.87 766.91 324.25C765.54 323.9 764.36 323 763.66 321.77C761.72 318.41 761.66 318.3 775.43 301.29C770.93 303.95 766.31 306.71 762.15 309.18C728.98 328.95 728.98 328.95 726.21 328.24C724.85 327.89 723.67 326.99 722.97 325.77C721.19 322.69 720.57 321.62 730.26 313.41C712.25 324.09 711.46 323.9 709.11 323.29C707.74 322.94 706.52 322.01 705.81 320.79C703.29 316.42 703.1 316.09 732.85 290.96C731.38 291.85 729.92 292.72 728.49 293.58C673.92 326.33 673.58 326.25 670.37 325.42C669.01 325.07 667.79 324.15 667.08 322.93C665.81 320.72 665.72 319.02 667.56 316.76C635.11 335.93 634.33 335.76 631.77 335.09C630.41 334.74 629.2 333.82 628.5 332.6C625.62 327.61 627.09 326.37 652.58 309.4C630.53 322.16 629.31 321.83 627.03 321.25C625.66 320.9 624.4 319.95 623.7 318.73C621.16 314.34 620.69 313.54 656.46 289.72C580.18 335.35 579.17 335.11 575.82 334.24C574.46 333.89 573.21 332.94 572.5 331.72C569.44 326.42 568.85 325.41 630.53 285.57C552.17 332.79 546.77 334.75 542.73 333.73C541.36 333.37 540.03 332.38 539.32 331.15C536.89 326.95 535.73 324.94 569.59 302.6C517.63 333.31 509.26 336.95 505.71 336.04C504.35 335.69 503.03 334.71 502.32 333.48C499.61 328.79 498.79 327.35 551.23 293.76C506.54 319.94 496.1 324.47 492.1 323.44C490.73 323.09 489.3 322.03 488.59 320.8C487.71 319.28 487.01 318.07 488.1 316.12C459.22 332.67 450.71 336.45 447.13 336.45ZM328.13 313.78C328.13 313.78 328.13 313.78 328.13 313.79C328.13 313.78 328.13 313.78 328.13 313.78ZM328.12 313.77C328.12 313.77 328.12 313.77 328.12 313.77C328.12 313.77 328.12 313.77 328.12 313.77ZM328.12 313.76C328.12 313.76 328.12 313.76 328.12 313.76C328.12 313.76 328.12 313.76 328.12 313.76ZM328.11 313.75C328.11 313.75 328.11 313.75 328.11 313.76C328.11 313.75 328.11 313.75 328.11 313.75ZM328.1 313.74C328.1 313.74 328.1 313.74 328.1 313.74C328.1 313.74 328.1 313.74 328.1 313.74ZM328.1 313.73C328.1 313.73 328.1 313.73 328.1 313.73C328.1 313.73 328.1 313.73 328.1 313.73Z"></path>
			</g>
			<g id="Compound">
				<path id="Compound" fill-rule="evenodd" class="shp0 svg-elem-3" d="M487.06 149.32C486.66 149.32 486.33 149.24 485.95 149.14C484.59 148.78 483.43 147.9 482.72 146.68C481.11 143.88 480.96 143.62 488.88 131.49C479.72 137.11 478.76 137.43 476.39 136.82C475.01 136.48 473.79 135.56 473.08 134.33C471.86 132.23 471.86 132.23 475.61 118.26C475.75 117.74 475.9 117.19 476.04 116.64C470.12 120.09 462.5 124.61 455.76 128.59C423.92 147.44 423.92 147.45 421.3 146.75C419.94 146.4 418.77 145.51 418.06 144.29C416.49 141.56 415.9 140.54 421.88 134.78C409.34 142.08 408.86 141.95 406.95 141.45C405.59 141.09 404.42 140.19 403.72 138.97C402.57 136.98 402.53 136.92 405.37 125.84C403.66 126.88 401.95 127.93 400.47 128.84C387.64 136.7 387.65 136.69 385.15 136.04C383.77 135.69 382.57 134.78 381.87 133.54C380.8 131.71 380.52 131.06 382.22 127.54C365.91 137.37 365.89 137.37 363.33 136.71C361.96 136.36 360.78 135.47 360.07 134.25C359.81 133.8 359.8 133.78 356 124.72C355.43 123.35 354.86 121.98 354.34 120.73C349.74 123.38 342.53 127.68 336.77 131.12C313.56 144.97 313.53 144.99 310.94 144.3C309.57 143.95 308.4 143.05 307.69 141.83C306.24 139.31 307.11 136.09 309.63 134.64C309.99 134.43 310.37 134.28 310.75 134.16C313.11 132.98 323.2 126.96 331.38 122.08C355.61 107.62 355.64 107.62 358.25 108.3C359.61 108.65 360.79 109.54 361.5 110.76C361.75 111.21 361.77 111.23 365.71 120.65C366.23 121.89 366.74 123.12 367.22 124.25C370.23 122.48 374.22 120.07 377.5 118.1C393.94 108.2 393.93 108.19 396.5 108.84C397.86 109.19 399.05 110.09 399.75 111.31C400.77 113.08 401.13 113.71 399.6 117.03C411.4 109.83 412.09 109.68 414.55 110.3C415.93 110.64 417.14 111.55 417.85 112.78C419 114.79 419.05 114.87 416.22 125.9C421.48 122.83 428.03 118.96 433.85 115.52C462.39 98.67 462.38 98.67 464.92 99.32C466.28 99.67 467.44 100.56 468.15 101.77C469.75 104.56 470.31 105.53 464.05 111.47C482.82 100.41 483.2 100.51 485.39 101.08C486.76 101.44 487.93 102.33 488.63 103.55C489.88 105.7 489.88 105.7 485.77 120.99C485.77 121.01 485.76 121.04 485.75 121.06C486.77 120.44 487.77 119.82 488.7 119.24C502.7 110.59 503.53 110.06 506.28 110.75C507.67 111.1 508.88 112.01 509.59 113.24C511.21 116.07 511.36 116.34 503.11 128.98C508.57 125.77 514.66 122.18 520.46 118.76C565.05 92.47 565.05 92.46 567.84 93.19C569.19 93.55 570.37 94.44 571.07 95.65C572.91 98.85 573.43 99.73 562.23 109.53C568.85 105.82 569.49 105.99 571.1 106.4C572.46 106.76 573.63 107.65 574.34 108.87C576.03 111.81 576.3 112.28 568.05 122.5C568.42 122.28 568.79 122.06 569.15 121.85C599.25 103.98 599.25 103.97 601.95 104.67C603.31 105.02 604.49 105.92 605.2 107.14C605.36 107.35 608.07 111.11 610.88 115.03C612.74 117.61 614.1 119.5 615.1 120.89C618.84 118.73 624.8 115.15 629.55 112.29C650.17 99.9 650.16 99.89 652.81 100.59C654.18 100.95 655.37 101.85 656.07 103.07C657.77 106.02 657.95 106.33 649.19 118.5C649.97 118.04 650.73 117.58 651.47 117.14C670.76 105.63 670.77 105.62 673.23 106.27C674.6 106.62 675.77 107.51 676.47 108.74C677.46 110.43 677.64 110.75 676.11 116.22C676.16 116.19 676.21 116.16 676.26 116.13C687.6 109.11 688.26 108.7 690.87 109.35C692.24 109.69 693.46 110.6 694.17 111.82C695.34 113.87 695.61 114.35 692.88 119.89C704.21 112.94 704.61 112.83 707.08 113.46C708.46 113.81 709.67 114.73 710.37 115.96C710.95 116.95 710.95 116.95 712.29 126.19C712.41 127.05 712.55 128.01 712.69 128.98C716.87 126.54 722.51 123.19 727.46 120.25C757.02 102.7 757.03 102.69 759.74 103.41C761.1 103.76 762.28 104.66 762.99 105.88C763.88 107.44 763.89 107.46 763.25 119.35C764.92 118.36 766.67 117.31 768.29 116.33C786.54 105.37 786.55 105.37 789.15 106.05C790.51 106.4 791.7 107.31 792.41 108.53C794.01 111.3 794.48 112.12 787.74 119.32C800.37 112.05 800.71 112.15 802.47 112.64L801.08 117.71L803.48 122.39C802.54 122.89 791.91 129.05 782.54 134.49C758.64 148.35 758.65 148.33 756.49 147.76C755.14 147.4 754 146.52 753.3 145.32C751.58 142.37 751.2 141.72 758.89 133.74C757.76 134.11 757.18 133.97 756.26 133.72C754.89 133.37 753.72 132.47 753.02 131.24C752.15 129.75 752.15 129.75 752.72 119.23C752.75 118.69 752.78 118.11 752.81 117.51C747.13 120.81 739.26 125.48 732.83 129.3C709.8 142.98 709.8 142.98 707.33 142.33C705.97 141.98 704.8 141.08 704.1 139.86C703.48 138.8 703.48 138.8 701.87 127.7C701.83 127.4 701.79 127.1 701.74 126.81C699.8 127.98 697.68 129.29 695.84 130.42C682.12 138.84 681.56 139.18 678.92 138.5C677.54 138.15 676.33 137.23 675.63 136C674.47 133.98 674.2 133.52 676.86 128.13C669.48 132.65 668.63 132.87 666.35 132.31C664.97 131.96 663.76 131.05 663.04 129.81C662.05 128.1 661.88 127.81 663.44 122.26C661.25 123.56 658.98 124.91 656.86 126.18C632.74 140.57 632.75 140.57 630.08 139.87C628.72 139.51 627.54 138.61 626.83 137.39C625.14 134.45 624.95 134.12 633.56 122.16C614.8 133.43 614.73 133.43 612.16 132.77C610.8 132.41 609.61 131.51 608.91 130.29C608.68 129.97 605.44 125.48 602.34 121.18C600.92 119.19 599.83 117.68 598.99 116.51C593.5 119.62 582.84 125.96 574.52 130.89C547.95 146.67 547.96 146.65 545.42 145.98C544.06 145.63 542.89 144.74 542.18 143.52C540.48 140.57 540.21 140.11 548.62 129.7C547.01 130.65 545.43 131.59 543.94 132.48C517.05 148.44 517.06 148.43 514.49 147.76C513.13 147.41 511.96 146.51 511.25 145.3C509.34 141.99 508.89 141.21 521.25 130.51C493.61 146.81 489.23 149.32 487.06 149.32ZM315.57 135.11C315.93 135.41 316.25 135.75 316.53 136.14C316.25 135.74 315.92 135.4 315.57 135.11ZM316.53 136.14C316.63 136.27 316.72 136.41 316.8 136.56C316.72 136.42 316.63 136.27 316.53 136.14ZM617.75 124.61C617.83 124.72 617.88 124.79 617.91 124.85C617.86 124.77 617.81 124.69 617.75 124.61ZM596.13 112.49C596.22 112.63 596.31 112.78 596.42 112.91C596.25 112.67 596.18 112.57 596.13 112.49ZM596.12 112.46C596.11 112.45 596.1 112.43 596.09 112.41C596.1 112.43 596.11 112.45 596.12 112.46ZM316.8 136.56C316.81 136.57 316.81 136.57 316.81 136.57C316.81 136.57 316.81 136.57 316.8 136.56Z"></path>
			</g>
			<g id="Compound">
				<path id="Compound" fill-rule="evenodd" class="shp0 svg-elem-4" d="M763.26 358.58C762.82 358.58 762.42 358.47 761.9 358.34C760.54 357.98 759.37 357.09 758.67 355.86C756.93 352.83 756.62 352.28 765.24 342.99C761.88 344.79 761.27 344.63 759.81 344.26C758.45 343.91 757.26 343.02 756.56 341.8C755.91 340.67 755.91 340.67 754.86 330.46C754.73 329.13 754.57 327.6 754.41 326.09C751.61 327.74 748.32 329.71 745.53 331.38C727.43 342.2 727.39 342.2 724.89 341.55C724.52 341.46 724.16 341.32 723.82 341.15C722.02 340.54 714.39 338.54 708.76 337.07C702.29 335.38 698.35 334.35 695.87 333.59C693.37 335 688.4 338.01 684.56 340.33C669.15 349.65 669.15 349.65 666.59 348.99C665.22 348.64 664.04 347.74 663.33 346.52C661.99 344.21 661.58 343.49 665.27 338.42C664.5 338.89 663.74 339.33 663.02 339.76C642.85 351.76 642.84 351.76 640.41 351.13C639.04 350.77 637.87 349.88 637.17 348.66C636.17 346.92 635.76 346.06 636.94 343.89C626.55 350.12 626.25 350.05 624.07 349.49C622.71 349.14 621.53 348.24 620.82 347.02C619.61 344.92 619.07 343.99 621.29 341.11C620.86 341.1 620.47 341 619.99 340.87C618.62 340.52 617.44 339.62 616.73 338.4C616.06 337.23 615.99 337.12 615.87 331.53C614.51 332.34 613.13 333.19 611.88 333.94C596.12 343.5 596.11 343.5 593.48 342.83C592.12 342.48 590.92 341.58 590.21 340.36C589.7 339.45 589.6 339.27 589.31 336.27C588.26 336.91 587.24 337.54 586.33 338.09C575.41 344.78 575.22 344.92 572.69 344.28C571.32 343.93 570.12 343.02 569.42 341.79C568.89 340.88 568.89 340.88 567.02 331.43C566.89 330.74 566.75 330.06 566.62 329.39C562.2 331.95 556.03 335.61 551.01 338.59C529.66 351.25 529.68 351.23 527.23 350.58C525.86 350.22 524.7 349.33 524 348.11C522.77 345.99 522.7 345.88 526.05 336.52C516.32 342.5 515.81 342.7 513.38 342.09C512 341.74 510.8 340.84 510.09 339.61C509.51 338.6 509.51 338.6 508.08 329.06C507.91 327.97 507.72 326.71 507.53 325.45C504.78 327.09 501.52 329.04 498.77 330.7C480.91 341.43 480.91 341.42 478.34 340.76C476.98 340.41 475.79 339.51 475.09 338.29C473.92 336.26 473.82 336.09 477.07 325.91C472.06 328.85 466.05 332.4 460.68 335.59C431.37 352.94 431.39 352.93 428.81 352.25C427.45 351.89 426.28 351 425.57 349.79C424.67 348.23 424.67 348.23 425.48 332.98C425.54 331.95 425.6 330.87 425.65 329.79C422.8 331.47 419.55 333.41 416.61 335.15C396.56 347.06 396.56 347.06 394.09 346.41C392.73 346.06 391.56 345.17 390.85 343.96C389.69 341.95 389.69 341.95 393.07 326.22C393.17 325.76 393.27 325.28 393.38 324.8C387.02 328.5 378.46 333.54 370.95 337.96C336.76 358.11 336.76 358.1 334.21 357.43C332.85 357.07 331.68 356.19 330.98 354.98C329.14 351.78 328.7 351.02 339.06 341.64C311.28 358 311.07 357.96 308.7 357.32C307.35 356.97 306.18 356.08 305.47 354.86C303.76 351.9 303.64 351.69 314.11 336.26C287.95 351.78 287.89 351.79 285.27 351.1C283.91 350.75 282.73 349.85 282.03 348.63C277.94 341.56 277.31 340.47 442.51 237.66C442.7 237.54 442.89 237.43 443.08 237.31C320.64 310.83 301.58 320.85 296.04 319.43C294.68 319.08 293.3 318.05 292.59 316.82C288.86 310.36 288.79 310.23 419.29 226.78C420.43 226.06 421.56 225.33 422.71 224.6C299.75 298.18 292.71 301.23 288.3 300.09C286.94 299.74 285.64 298.76 284.94 297.54C282.49 293.31 281.61 291.79 312.12 272.66C311.96 272.62 311.79 272.58 311.63 272.54C310.26 272.18 308.98 271.23 308.28 270C305.58 265.33 304.82 264.02 346.48 236.76C286.76 272.48 282.8 273.77 279.41 272.89C278.05 272.54 276.76 271.57 276.06 270.35C273.75 266.36 272.78 264.66 299.96 246.59C291.5 251.02 290.44 250.75 288.9 250.34C287.54 249.99 286.3 249.05 285.59 247.83C284.43 245.81 283.63 244.44 286.18 241.56C283.63 242.53 282.81 242.32 281.8 242.05C280.43 241.7 279.16 240.74 278.45 239.52C276.82 236.69 276.81 234.81 280.95 231.24C279.61 230.88 278.42 229.97 277.73 228.76C275.27 224.5 274.59 223.34 303.33 204.27C302.82 204.27 302.35 204.18 301.86 204.05C300.49 203.7 299.25 202.76 298.55 201.53C297.13 199.09 296.41 197.84 301.09 193.62C292.38 198.55 291.57 198.35 289.8 197.89C288.43 197.54 287.22 196.63 286.52 195.4C284.1 191.22 283.71 190.54 309.18 170.07C300.41 175.1 299.71 174.91 297.83 174.42C296.46 174.07 295.27 173.16 294.57 171.94C292.74 168.79 292.28 168 302.81 158.71C294.99 163.17 294.43 163.03 292.82 162.6C291.47 162.24 290.31 161.36 289.61 160.15C288.66 158.52 288.11 157.57 288.95 155.92C284.36 158.43 283.79 158.29 282.35 157.91C280.99 157.56 279.83 156.67 279.13 155.45C276.67 151.18 276.67 151.18 304.69 125.77C305.98 124.6 307.33 123.37 308.71 122.12L309.56 118.87L314.12 116.24L309.56 118.87L307.51 114.04C308.54 113.54 314.84 109.81 319.44 107.08C334.28 98.29 334.28 98.29 336.63 98.91C337.99 99.27 339.16 100.16 339.86 101.38C342.16 105.38 342.38 105.75 319.48 126.57C320.3 126.37 320.78 126.5 321.47 126.67C322.84 127.03 324.01 127.93 324.72 129.15C325.62 130.72 326.16 131.67 325.42 133.25C345.41 121.5 345.7 121.57 347.91 122.15C349.27 122.51 350.44 123.4 351.14 124.62C352.89 127.64 353.43 128.57 343.88 137.16C362.58 126.01 362.99 126.09 365.36 126.71C366.73 127.07 367.91 127.97 368.62 129.19C371.07 133.44 371.32 133.86 343.63 156.01C381.34 133.4 381.86 133.54 384.76 134.29C386.12 134.64 387.34 135.56 388.05 136.78C389.49 139.28 390.23 140.56 385.3 144.98C428.35 119.13 429.03 119.29 432.04 120.05C433.4 120.4 434.64 121.33 435.34 122.55C437.54 126.37 437.03 128.37 425.56 136.55C434.67 131.61 435.63 131.86 437.24 132.28C438.61 132.63 439.83 133.56 440.53 134.78C441.26 136.05 441.67 137.13 441.51 138.25C456.07 129.99 457.17 130.28 459.12 130.78C460.49 131.13 461.73 132.07 462.44 133.29C463.51 135.14 464.25 136.42 462.27 138.85C492.09 121.4 493.08 121.65 495.47 122.26C496.83 122.62 498.05 123.54 498.75 124.76C500.98 128.63 501.83 130.11 477.7 146.07C503.15 131.4 506.36 130.71 508.95 131.38C510.32 131.73 511.63 132.71 512.33 133.94C514.8 138.21 515.58 139.56 484 160.45C531.87 132.04 540.04 128.52 543.77 129.47C545.14 129.83 546.49 130.84 547.2 132.06C548.43 134.19 549.33 135.76 545.61 139.56C562.93 129.84 564.2 130.17 566.21 130.7C567.58 131.05 568.84 132 569.55 133.22C573.36 139.81 573.75 140.5 424.96 235.65C422.65 237.12 420.33 238.61 418 240.1C436.32 229.12 454.98 217.89 472.6 207.28C605.57 127.22 611.65 124.45 616.05 125.6C617.42 125.95 618.7 126.91 619.41 128.13C623.57 135.34 624.44 136.84 448.07 246.6C408.57 271.18 366.13 297.59 335.31 317.45C335.37 317.55 335.44 317.65 335.5 317.75C337.26 320.79 337.31 320.86 326.43 336.86C331.52 333.87 337.04 330.62 342.12 327.63C378.23 306.35 378.22 306.35 380.82 307.04C382.18 307.4 383.34 308.29 384.04 309.51C385.83 312.6 386.34 313.49 376.62 322.41C399.61 308.9 399.85 308.98 402.11 309.56C403.47 309.92 404.63 310.81 405.34 312.02C406.47 313.98 406.47 313.98 403.36 328.43C403.18 329.28 402.98 330.19 402.79 331.11C405.58 329.46 408.6 327.67 411.23 326.1C430.21 314.84 430.2 314.86 432.63 315.48C433.98 315.84 435.15 316.72 435.86 317.94C436.74 319.47 436.74 319.47 435.99 333.54C435.92 334.96 435.83 336.52 435.75 338.06C441.22 334.87 448.74 330.42 455.31 326.53C484.72 309.12 484.73 309.11 487.33 309.8C488.69 310.15 489.86 311.05 490.56 312.27C491.75 314.31 491.8 314.41 488.56 324.55C490.2 323.57 491.84 322.58 493.35 321.68C510.3 311.49 510.31 311.48 512.83 312.14C514.2 312.49 515.38 313.39 516.08 314.61C516.7 315.68 516.7 315.68 518.48 327.49C518.54 327.9 518.6 328.31 518.67 328.7C519.87 327.97 521.1 327.21 522.21 326.53C533.78 319.4 534.22 319.12 536.83 319.77C538.2 320.11 539.41 321.02 540.12 322.24C541.33 324.34 541.47 324.59 538.14 333.98C540.62 332.51 543.22 330.97 545.64 329.54C569.13 315.61 569.13 315.61 571.66 316.28C573.03 316.64 574.2 317.53 574.9 318.75C575.42 319.67 575.42 319.67 577.34 329.38C577.45 329.94 577.57 330.5 577.67 331.05C578.75 330.4 579.85 329.72 580.83 329.12C592.07 322.24 592.5 321.97 595.04 322.62C596.42 322.97 597.62 323.88 598.33 325.12C598.83 325.97 598.93 326.15 599.24 329.28C601.62 327.85 604.27 326.25 606.42 324.94C619.68 316.9 619.69 316.9 622.16 317.53C623.53 317.88 624.71 318.77 625.42 319.99C626.1 321.19 626.17 321.32 626.3 326.95C628.38 325.7 630.63 324.35 632.59 323.17C647.85 313.97 647.87 313.98 650.37 314.62C651.74 314.98 652.92 315.87 653.63 317.09C654.64 318.85 655.19 319.81 654 321.81C655.54 321.21 656.17 321.37 657.23 321.65C658.6 322 659.79 322.91 660.5 324.14C661.47 325.82 661.95 326.63 660.78 328.85C684.18 314.95 684.26 314.99 686.82 315.65C688.18 316 689.36 316.9 690.07 318.11C691.38 320.39 691.78 321.1 688.43 325.73C694.42 322.23 694.92 322.36 696.77 322.84C697.12 322.93 697.46 323.05 697.78 323.21C699.43 323.75 706.32 325.55 711.42 326.89C718.79 328.82 723.16 329.96 725.83 330.79C728.8 329.12 735.2 325.29 740.13 322.34C757.53 311.94 757.54 311.92 760.05 312.57C761.42 312.93 762.59 313.83 763.3 315.06C763.98 316.23 763.98 316.23 765.33 329.38C765.38 329.83 765.42 330.28 765.47 330.72C767.98 329.23 770.85 327.5 773.3 326.02C791.1 315.3 791.11 315.28 793.73 315.96C795.1 316.32 796.29 317.22 796.99 318.45C799.06 322.04 799.21 322.3 783.97 338.47L783.09 341.78L785.21 346.58C784.29 347.03 778.88 350.23 774.93 352.56C766.65 357.44 764.72 358.58 763.26 358.58ZM692.69 332.41C693.15 332.69 693.64 332.89 694.13 333.02C693.52 332.8 693.06 332.6 692.69 332.41ZM727.76 331.44C728.21 331.61 728.57 331.77 728.87 331.92C728.51 331.71 728.14 331.55 727.76 331.44ZM730.75 333.81C730.75 333.81 730.76 333.82 730.76 333.82C730.76 333.82 730.75 333.81 730.75 333.81ZM690.93 330.58C690.93 330.59 690.93 330.59 690.94 330.6C690.93 330.59 690.93 330.59 690.93 330.58Z"></path>
			</g>
		</g>
		<path id="Compound6" class="shp1 svg-elem-5" d="M365.85 736.18C368.19 734.92 367.89 733.09 367.94 731.46C368.22 722.97 368.43 714.48 368.72 706C370.75 646.22 371.43 586.43 371 526.62C370.95 520.57 371.16 514.48 371.78 508.47C372.58 500.67 375.99 496.95 383.68 495.35C388.28 494.39 393.03 493.79 397.73 493.67C416.64 493.16 435.56 492.72 454.47 492.61C472.54 492.51 490.62 492.97 508.69 492.91C514.2 492.9 518.57 495.41 523.17 497.91C516.26 499.7 509.5 501.79 502.29 501.79C471 501.83 439.71 501.91 408.42 502.05C403.71 502.07 398.94 502.13 394.29 502.85C385.27 504.24 381.28 508.81 380.48 517.96C380.23 520.86 380.13 523.78 380.19 526.68C381.03 570.83 381.77 614.98 382.82 659.12C383.57 691.01 384.71 722.89 385.73 754.78C386.02 763.87 386.54 772.95 386.79 782.05C386.92 786.65 386.61 791.26 386.64 795.86C386.67 800.34 386.82 804.82 387.01 809.29C387.15 812.65 388.68 815.32 391.38 817.31C391.68 817.53 391.96 817.76 392.24 817.98C399.18 823.33 399.18 823.28 408.01 823.4C443.06 823.87 478.11 824.17 513.15 824.92C553.65 825.79 594.14 825.42 634.64 824.58C640.21 824.46 645.8 824.78 651.37 824.57C655.35 824.43 659.36 824 663.26 823.23C669.55 821.99 674.65 818.6 678.66 813.58C682.47 808.81 685.5 803.59 687.67 797.87C691.5 787.79 695.35 777.72 699.21 767.65C699.67 766.44 700.28 765.3 701.09 764.2C703.28 773.89 702.76 783.47 700.59 793C698.44 802.47 694.39 811.21 690.22 820.13C693.66 818.74 697.16 817.49 700.52 815.94C704.39 814.14 706.25 810.86 706.51 806.66C706.6 805.2 706.57 803.75 706.57 802.29C706.58 708.28 706.6 614.26 706.6 520.25C706.6 516.98 706.64 513.69 706.34 510.44C705.79 504.57 703.64 502.43 697.75 502.25C689.75 502 681.74 502.12 673.74 502.05C656.03 501.88 638.32 501.99 620.63 501.43C606.94 501.01 593.28 499.76 579.61 498.86C575.51 498.59 571.41 498.27 567.08 497.96C567.02 496.85 566.97 495.95 566.92 495.07C567.45 494.87 567.78 494.68 568.12 494.64C568.84 494.56 569.57 494.52 570.3 494.51C612.38 494.13 654.46 493.73 696.54 493.41C699.92 493.38 703.32 493.7 706.67 494.17C711.85 494.89 715.13 498.02 716.87 502.89C718.97 508.77 719.54 514.93 720.31 521.06C720.49 522.49 720.68 523.91 720.86 525.33C721.11 525.37 721.36 525.41 721.61 525.45C728.62 501.93 735.64 478.42 742.74 454.61C744.45 455.05 745.81 455.39 747.48 455.82C747.22 457.29 747.02 458.57 746.77 459.84C741.34 487.1 733.07 513.61 725.73 540.37C723.49 548.55 721.25 556.73 718.91 564.88C717 571.58 716.17 578.41 716.17 585.36C716.17 595.31 716.15 605.25 716.14 615.2C716.09 671.49 716 727.77 716.04 784.06C716.06 798.16 714.53 812.14 713.39 826.16C713.25 827.83 713.06 829.5 712.81 832.02C710.8 829.64 709.21 827.76 707.64 825.87C705.68 823.53 705.59 823.31 702.81 824.64C696.31 827.76 689.49 828.65 682.35 828.72C659.3 828.95 636.27 829.49 613.22 829.82C563.38 830.54 513.54 831.18 463.7 831.88C444.51 832.15 425.42 830.6 406.3 829.35C397.04 828.75 387.99 827.46 379.16 824.66C378.24 824.37 377.32 824.09 376.19 823.75C376.19 800.55 376.19 777.4 376.19 754.06C374.21 755.71 369.97 763.79 367.33 770.61C367.85 771.69 368.59 772.54 368.65 773.44C369.31 783.24 369.87 793.05 370.44 802.86C370.46 803.32 370.32 803.79 370.21 804.54C367.97 804.91 365.75 805.29 363.22 805.71C362.8 804.02 362.45 802.52 362.06 801.03C356.81 780.8 353.82 760.18 351.27 739.48C348.77 719.15 345.99 698.85 343.65 678.5C341.83 662.72 340.57 646.88 338.96 631.08C336.93 611.06 334.91 591.04 332.68 571.04C330.53 551.76 327.96 532.53 325.85 513.26C323.34 490.48 321.12 467.67 318.8 444.88C318.59 442.85 318.5 440.82 318.32 438.33C323 438.89 327.27 439.38 331.54 439.91C344.41 441.52 357.3 442.95 370.14 444.8C393.49 448.16 417.03 448.39 440.53 449.16C485.14 450.63 529.76 451.87 574.4 451.23C611.62 450.69 648.84 449.52 686.06 448.6C692.24 448.45 698.42 448.01 704.6 448.01C715.38 448.01 725.77 445.73 736.11 443.02C739.85 442.05 743.61 441.14 747.6 440.14C747.93 434.65 748.26 429.24 748.62 423.31C752.69 424.59 756.35 425.68 759.97 426.9C761.81 427.53 762.78 428.97 763.39 430.85C766.25 439.65 767.25 448.63 765.88 457.77C762.48 480.43 758.84 503.05 755.53 525.71C753.27 541.18 751.34 556.71 749.39 572.22C747.46 587.49 745.51 602.77 743.88 618.08C742.12 634.59 740.63 651.14 739.17 667.68C737.37 688.09 736.18 708.57 733.88 728.92C731.79 747.46 728.53 765.86 725.87 784.34C725.39 787.67 723.63 790.11 721.38 792.6C719.84 790.3 719 788.01 719.01 785.37C719.03 766.81 719.09 748.25 718.98 729.69C718.95 724.66 719.99 720.13 723.09 716.08C725.36 713.1 726.54 709.63 726.23 705.85C725.12 692.38 728.24 679.33 730.08 666.14C732.52 648.74 734.97 631.34 737.1 613.89C739.17 596.93 740.87 579.92 742.68 562.92C744.26 548.09 745.73 533.25 747.34 518.42C748.85 504.44 750.47 490.47 752.06 476.5C753.32 465.31 754.61 454.12 755.97 442.21C754.41 443.22 753.33 443.89 752.29 444.61C743.22 450.91 733.48 455.72 722.46 457.36C717.57 458.09 712.57 458.45 707.62 458.43C667.48 458.26 627.33 457.78 587.19 457.75C516.72 457.7 446.26 457.93 375.79 457.94C369.51 457.94 363.17 457.61 356.95 456.75C348.8 455.62 341.41 452.27 334.27 447.44C334.74 448.96 335.18 450.5 335.68 452.02C343.37 475.65 350.42 499.46 356.02 523.69C362.26 550.68 366.46 577.96 367.89 605.64C368 607.81 367.9 609.98 367.9 612.48C366.72 612.74 365.5 613.01 364 613.34C362.93 608.06 361.91 603.1 360.93 598.13C352.97 557.83 345.02 517.52 337.07 477.22C336.13 472.46 335.23 467.7 334.25 462.95C334.03 461.88 334.13 460.26 332.15 460.9C331.64 463.36 338.81 522.73 342.79 552.44C346.9 583.08 350.51 613.78 354.35 644.46C358.16 674.95 362 705.44 365.85 736.18Z"></path>
		<path id="Compound5" class="shp1 svg-elem-6" d="M773.88 410.17C773.88 411.63 773.88 413 773.88 414.56C622.12 414.56 470.58 414.56 318.9 414.56C318.9 413.44 318.9 412.53 318.9 411.11C376.07 409.02 433.1 406.93 490.05 404.85C490.72 401.73 490.69 401.58 488.25 401.3C484.76 400.9 481.25 400.65 477.75 400.35C476.58 400.25 475.47 400.14 475.97 398.26C476.83 398.18 477.76 398.03 478.7 398.03C505.99 398.02 533.27 398.01 560.56 398.02C572.49 398.02 584.22 399.45 595.84 402.28C608.73 405.41 621.91 406.76 635.15 406.81C651.27 406.87 667.4 406.27 683.52 406.24C695.76 406.22 708.01 406.44 720.24 406.95C726.4 407.21 732.56 408.08 738.63 409.18C747.07 410.72 755.51 410.67 764 410.2C767.23 410.02 770.48 410.17 773.88 410.17Z"></path>
		<path id="Compound4" class="shp1 svg-elem-7" d="M742.77 437.52C741.69 436.62 741.04 436.12 740.43 435.58C734.51 430.29 727.6 428.44 719.84 429.86C715.55 430.64 711.32 431.7 707.03 432.48C704.53 432.93 701.99 433.23 699.46 433.33C684.8 433.92 670.14 434.36 655.48 434.98C644.43 435.45 633.43 435.17 622.42 434.1C616.63 433.53 610.82 433.1 605 432.99C565.6 432.26 526.18 432.14 486.78 433.13C472.47 433.49 458.19 434.44 443.89 434.83C431.4 435.18 418.9 435.58 406.43 435.11C397.14 434.76 387.9 433.01 378.63 431.98C372.37 431.28 366.09 430.24 359.82 430.26C353.07 430.29 346.32 431.37 339.56 431.99C337.78 432.15 336 432.29 333.95 432.46C333.51 429.59 333.12 427 332.72 424.33C335.66 423.09 338.48 422.75 341.41 422.85C357.53 423.43 373.65 423.9 389.76 424.57C414.37 425.59 438.97 425.77 463.6 425.34C513.43 424.47 563.27 423.77 613.1 422.89C623.8 422.7 634.42 423.56 645.03 424.67C655.7 425.79 666.36 425.82 676.99 424.73C692.05 423.2 707.07 421.2 722.12 419.51C725.12 419.17 728.18 419.16 731.2 419.31C734.53 419.47 737.26 421.04 739.03 423.93C741.46 427.91 742.27 432.35 742.77 437.52Z"></path>
		<path id="Compound3" fill-rule="evenodd" class="shp1 svg-elem-8" d="M529.51 502.46C527.1 497.78 525.07 472.33 526.47 465.46C538.11 465.46 549.78 465.46 561.8 465.46C561.7 467.73 561.67 469.76 561.51 471.79C560.86 480.12 560.16 488.45 559.48 496.77C559.41 497.62 559.34 498.47 559.19 499.3C558.99 500.4 558.3 501.08 557.15 500.9C554.56 500.49 551.8 501.23 549.39 499.62C548.93 499.31 548.25 499.15 547.69 499.19C543.28 499.5 538.76 498.71 534.56 501C533.04 501.84 531.15 502.01 529.51 502.46ZM540.92 472.05C538.4 473.88 536.97 475.65 536.78 478.3C536.67 479.73 536.22 481.13 536 482.55C535.28 487.17 536.34 489.17 540.42 491.36C541.86 492.13 543.11 492.28 544.35 491.07C545.82 489.65 547.42 488.35 548.76 486.81C550.74 484.52 550.89 483.42 549.01 481.06C546.54 477.97 543.74 475.16 540.92 472.05Z"></path>
		<path id="Compound2" fill-rule="evenodd" class="shp1 svg-elem-9" d="M811.17 313.41C811.34 318.79 810.03 323.76 807.46 328.39C802.31 337.64 795.06 344.79 785.72 349.78C781.26 352.16 776.52 353.33 771.39 353.13C745.95 352.15 720.5 351.26 695.06 350.33C681.12 349.82 667.19 349.15 653.25 348.81C618.7 347.98 584.15 347.31 550.49 346.59C493.09 347.44 436.59 348.27 380.09 349.11C362.99 349.37 345.89 349.61 328.8 349.92C326.02 349.97 323.25 350.3 320.48 350.59C314.9 351.17 309.35 351.25 303.87 349.78C290.35 346.13 280.82 334.87 279.37 320.4C278.84 315.11 278.78 309.75 278.8 304.42C278.94 269.98 278.92 235.53 279.44 201.09C279.77 179.39 280.95 157.71 281.7 136.01C281.86 131.39 283.22 127.21 285.78 123.39C291.17 115.34 298.26 109.23 306.96 105.02C310.49 103.31 314.22 102.5 318.2 102.5C391.2 102.53 464.2 102.53 537.21 102.5C609.96 102.47 682.72 102.46 755.48 102.3C769.54 102.26 781.98 106.39 792.78 115.26C796.8 118.56 800.41 122.35 804.18 125.95C806.29 127.96 807.35 130.51 807.69 133.36C807.93 135.4 808.13 137.46 808.16 139.52C809.01 189.36 809.83 239.2 810.66 289.04C810.8 297.16 810.91 305.29 811.17 313.41ZM805.84 297.64C805.43 287.46 804.56 277.3 804.22 267.12C803.59 247.73 803.17 228.33 802.71 208.93C802.2 187.71 801.53 166.49 801.39 145.27C801.34 137.51 797.04 131.95 793.86 125.6C792.57 125.93 791.63 126.12 790.73 126.42C789.85 126.7 789 127.1 788.02 127.49C788.24 128.41 788.4 129.1 788.57 129.79C792.58 145.85 794.61 162.18 795.17 178.7C795.78 196.78 795.12 214.83 794.02 232.88C793.11 247.88 792.42 262.91 791.92 277.93C791.67 285.56 791.93 293.21 792.18 300.84C792.4 307.85 792.92 314.85 793.33 322.05C633.77 322.05 474.24 322.05 314.62 322.05C314.62 320.16 314.62 318.53 314.62 316.5C470.75 316.5 626.66 316.5 782.92 316.5C782.92 314.81 782.95 313.51 782.92 312.21C782.74 304.33 782.37 296.44 782.39 288.56C782.45 269.4 782.67 250.23 782.87 231.07C783.15 203.29 783.22 175.52 780.77 147.81C780.41 143.76 779.93 139.71 779.47 135.36C626.23 135.36 473.47 135.36 320.41 135.36C320.32 133.28 320.24 131.55 320.15 129.53C474.23 129.53 627.86 129.53 782.36 129.53C781.83 126.36 781.58 123.72 780.93 121.19C779.65 116.14 776.13 113.49 771.09 112.8C768.94 112.51 766.75 112.33 764.57 112.3C726.13 111.78 687.68 111.25 649.24 110.78C609.22 110.3 569.2 109.63 529.18 109.48C461.86 109.24 394.55 109.35 327.23 109.35C324.46 109.35 321.66 109.62 318.91 110.04C310.29 111.34 306.08 115.41 304.65 124.09C304.09 127.54 303.96 131.09 303.96 134.59C303.91 195.49 303.92 256.38 303.92 317.28C303.92 318.71 303.92 320.14 303.92 321.69C298.45 323.56 293.23 325.36 287.62 327.28C288.58 328.32 289.16 329.05 289.84 329.67C292.61 332.22 295.38 334.76 298.19 337.25C300.18 339.01 302.03 341.61 304.33 342.13C306.63 342.66 309.47 341.26 311.98 340.4C317.67 338.46 323.46 337.74 329.48 337.77C348.28 337.86 367.08 337.66 385.88 337.67C510.92 337.69 635.97 337.76 761.02 337.7C768.15 337.7 775.04 338.19 781.56 341.28C782.1 341.54 782.71 341.66 783.27 341.89C784.44 342.35 785.31 342.06 786.15 341.09C791.32 335.13 796.49 329.19 800.23 322.16C804.31 314.49 806.19 306.28 805.84 297.64Z"></path>
		<path id="Compound1" fill-rule="evenodd" class="shp1 svg-elem-10" d="M814.15 1065.05C814.29 1071.14 812.82 1076.83 809.96 1082.16C804.55 1092.23 796.63 1099.64 786.13 1104.22C781.52 1106.24 776.67 1107.06 771.62 1107.06C727.35 1107.02 683.08 1107.03 638.81 1107.03C530.14 1107.03 421.47 1107.04 312.8 1107.01C309.17 1107.01 305.51 1106.86 301.92 1106.42C289.86 1104.96 283.75 1098.77 282.32 1086.71C282 1083.94 281.77 1081.15 281.72 1078.37C280.72 1016.27 279.42 954.17 278.84 892.07C277.91 793.57 277.46 695.07 276.82 596.57C276.49 545.39 276.44 494.19 275.73 443.01C275.4 418.67 293.62 402.72 310.4 398.87C313.69 398.11 317.09 397.71 320.46 397.5C339.58 396.28 358.71 395.22 377.83 394.01C392.47 393.09 407.11 392.04 421.74 391.04C422.45 390.99 423.16 390.89 424.03 390.8C424.03 389.73 424.03 388.82 424.03 387.4C410.04 387.27 396.16 387.41 382.35 387.32C381.47 384.38 381.36 362.17 382.19 358.44C383.28 358.27 384.44 358.1 386.09 357.84C388.16 366.24 390.2 374.53 392.31 383.07C393.55 383.07 394.61 383.1 395.67 383.06C433.49 381.74 471.31 380.53 509.11 379.02C525.71 378.35 542.27 376.97 558.86 376.08C565.88 375.7 572.92 375.63 579.95 375.61C608.09 375.57 636.23 375.6 664.37 375.61C664.97 375.61 665.6 375.52 666.18 375.64C672.1 376.85 677.12 374.65 681.95 371.6C684.49 370 687.09 368.5 690.24 366.6C684.19 364.39 678.74 362.87 672.89 362.88C658.46 362.88 644.03 362.73 629.6 362.71C589.33 362.64 549.06 362.58 508.8 362.57C500.75 362.56 492.95 360.96 484.86 359.73C484.95 358.56 485.02 357.65 485.12 356.29C556.41 354.87 627.54 353.45 699.17 352.02C699.46 362.96 699.24 373.66 699.32 384.83C697.55 384.83 696.13 384.83 694.71 384.83C658.45 384.87 622.19 384.95 585.92 384.89C579.55 384.88 573.34 385.58 567.3 387.57C559.52 390.13 551.67 390.44 543.62 389.03C540.18 388.42 536.61 388.34 533.1 388.34C520.98 388.35 508.86 388.31 496.75 388.69C492.19 388.83 487.68 390.25 483.11 390.81C472.41 392.11 461.69 393.32 450.96 394.42C431.66 396.38 412.35 398.24 393.05 400.13C375.55 401.85 358.04 403.44 340.42 403.09C331.41 402.91 322.46 403.48 313.81 406.25C307.9 408.14 302.11 410.36 297.87 415.26C297.48 415.71 297.14 416.19 296.68 416.78C298.77 419.22 300.8 421.59 303.03 424.2C301.82 424.88 300.92 425.43 299.98 425.9C295.73 427.98 291.51 430.12 287.21 432.06C285.37 432.89 284.38 434.12 283.8 435.98C281.53 443.25 281.68 450.61 283.32 457.91C284.77 464.41 286.61 470.83 288.37 477.25C290.82 486.17 292.81 495.14 292.04 504.75C293.04 504.84 293.93 504.93 295.07 505.04C295.07 502.9 295.18 501 295.05 499.11C294.19 486.65 293.28 474.19 292.39 461.74C292.33 460.89 292.21 460.02 292.35 459.2C292.44 458.72 292.99 457.98 293.35 457.97C293.92 457.96 294.91 458.33 295.04 458.75C297.2 465.65 300.51 472.21 300.46 479.75C300.43 484.94 301.06 490.14 301.55 495.33C302.08 500.96 302.38 506.68 299.35 511.62C297.05 515.37 295.05 518.73 297.25 523.15C297.54 523.74 297.34 524.59 297.35 525.31C297.62 556.73 297.85 588.15 298.18 619.56C298.24 625.06 297.76 630.45 296.61 635.81C296.25 637.46 296.12 639.17 295.79 640.83C295.2 643.77 295.86 646.4 297.8 648.63C300.09 651.27 300.69 654.27 300.65 657.71C300.29 689.13 300.04 720.55 299.74 751.96C299.73 753.02 299.6 754.08 299.51 755.3C298.14 755.3 296.99 755.3 295.59 755.3C295.22 749.6 294.87 744.06 294.5 738.24C293.54 737.97 292.55 737.7 291.56 737.43C291.25 737.91 290.93 738.19 290.9 738.5C290.46 742.96 289.99 747.43 289.65 751.9C288.08 772.33 286.67 792.78 284.96 813.2C283.92 825.64 282.45 838.05 281.18 850.47C281.11 851.17 281.09 851.87 281.01 853.1C286.28 850.84 291.08 848.66 294.56 844.4C296.82 841.64 297.72 838.39 297.13 834.86C296.79 832.84 296.36 830.78 295.58 828.9C292.35 821.19 292.25 813.31 294.3 805.36C296.04 798.56 298.07 791.83 299.96 785.06C300.29 783.91 300.54 782.73 300.87 781.37C301.91 781.37 302.91 781.37 304.39 781.37C302.95 883.43 301.52 985.25 300.08 1087.33C462.64 1087.33 624.85 1087.33 787.53 1087.33C787.53 1085.7 787.53 1084.17 787.53 1082.63C787.51 986.31 787.52 889.99 787.41 793.68C787.4 782.25 788.42 770.91 789.08 759.54C790.25 739.33 791.95 719.17 791.32 698.86C790.5 672.19 790.53 645.49 790.09 618.81C789.68 593.83 789.25 568.84 788.62 543.86C788.3 531.62 787.56 519.38 786.89 507.15C786.22 494.88 786.79 482.67 788.43 470.5C788.95 466.65 789.32 462.79 789.63 458.92C789.79 456.95 790.54 455.97 792.61 455.53C795.89 454.83 799.2 454.01 802.6 453.16C802.77 444.38 803.12 435.61 804.1 426.83C805.06 421.61 801.88 415.82 796.57 414.22C794.04 413.29 791.32 413.9 788.33 414.19L779.62 415.08C768.01 415.59 756.39 414.94 744.78 412.7L744.78 412.05C756.39 409.81 768.01 409.16 779.62 409.67L788.33 410.56C791.1 410.95 794.38 410.93 797.31 412.25C803.1 414.52 807.42 420.38 807.66 426.83C808.59 435.06 808.94 443.29 809.13 451.52C809.24 451.49 809.33 451.47 809.43 451.45C809.34 452 809.26 452.52 809.17 453.07C809.22 455.94 809.34 458.81 809.35 461.68C809.28 464.89 809.14 468.11 808.97 471.33C809.19 471.39 809.39 471.44 809.4 471.52C810.63 478.44 811.72 485.37 811.44 492.44C811.25 497.37 810.33 502.18 807.92 506.43C804.15 513.08 804.11 520.11 805.05 527.29C805.82 533.17 807.14 538.99 807.84 544.88C809.42 557.99 811.23 571.04 811.22 584.34C811.17 685.14 811.08 785.95 811.53 886.75C811.76 939.52 813.04 992.28 813.85 1045.04C813.95 1051.71 813.99 1058.38 814.15 1065.05ZM290.77 995.73C290.83 967.34 290.82 938.95 290.81 910.57C290.81 909.6 290.86 908.61 290.66 907.68C290.57 907.3 289.87 907.06 289.36 906.69C288.45 910.02 288.49 996.54 289.42 999.66C291.59 998.67 290.77 996.98 290.77 995.73ZM804.65 940.84C804.65 939.87 804.66 938.9 804.53 937.94C804.48 937.57 804.03 937.25 803.68 936.78C802.18 937.88 802.66 939.31 802.66 940.52C802.63 963.04 802.64 985.55 802.64 1008.06C802.64 1008.79 802.53 1009.55 802.72 1010.23C802.86 1010.75 803.4 1011.17 803.76 1011.63C803.99 1011.57 804.23 1011.51 804.47 1011.44C804.53 1010.18 804.64 1008.92 804.64 1007.65C804.65 985.38 804.65 963.11 804.65 940.84Z"></path>
		<g id="Layer 1">
			<path id="logotext2" fill-rule="evenodd" class="shp0 svg-elem-11" d="M477.36 779L477.36 745.56L487.57 745.56C491.32 745.56 494.15 746.42 496.06 748.12C497.98 749.8 498.95 752.28 498.95 755.55C498.95 758.85 497.98 761.35 496.06 763.03C494.15 764.72 491.32 765.56 487.57 765.56L481.88 765.56L481.88 779L477.36 779ZM487.57 749.28L481.88 749.28L481.88 761.85L487.57 761.85C489.68 761.85 491.3 761.3 492.45 760.21C493.6 759.12 494.18 757.57 494.18 755.55C494.18 753.55 493.6 752.01 492.45 750.92C491.3 749.83 489.68 749.28 487.57 749.28ZM497.94 779L510.7 745.56L515.83 745.56L528.58 779L523.87 779L520.83 770.42L505.76 770.42L502.71 779L497.94 779ZM519.42 766.66L513.26 750.02L507.12 766.66L519.42 766.66ZM549.31 763.32C550.28 763.65 551.22 764.35 552.14 765.43C553.06 766.5 553.99 767.98 554.91 769.86L559.5 779L554.64 779L550.37 770.42C549.26 768.18 548.19 766.7 547.14 765.97C546.11 765.23 544.7 764.87 542.91 764.87L537.98 764.87L537.98 779L533.46 779L533.46 745.56L543.67 745.56C547.49 745.56 550.34 746.36 552.22 747.96C554.11 749.56 555.05 751.97 555.05 755.19C555.05 757.3 554.55 759.05 553.57 760.43C552.6 761.82 551.18 762.79 549.31 763.32ZM543.67 749.28L537.98 749.28L537.98 761.15L543.67 761.15C545.85 761.15 547.49 760.65 548.6 759.65C549.72 758.64 550.28 757.15 550.28 755.19C550.28 753.24 549.72 751.77 548.6 750.78C547.49 749.78 545.85 749.28 543.67 749.28ZM565.33 779L565.33 745.56L569.85 745.56L569.85 779L565.33 779ZM598.9 746.66L598.9 751.07C597.18 750.25 595.56 749.64 594.04 749.24C592.51 748.83 591.04 748.63 589.62 748.63C587.16 748.63 585.26 749.11 583.91 750.07C582.58 751.02 581.92 752.38 581.92 754.14C581.92 755.62 582.36 756.74 583.24 757.5C584.14 758.25 585.82 758.85 588.3 759.31L591.03 759.87C594.41 760.52 596.89 761.65 598.49 763.28C600.1 764.89 600.91 767.06 600.91 769.77C600.91 773.01 599.82 775.47 597.64 777.14C595.48 778.81 592.3 779.65 588.1 779.65C586.52 779.65 584.83 779.47 583.04 779.11C581.26 778.75 579.42 778.22 577.51 777.52L577.51 772.86C579.34 773.89 581.14 774.67 582.91 775.19C584.67 775.72 586.4 775.98 588.1 775.98C590.68 775.98 592.68 775.47 594.08 774.45C595.48 773.44 596.19 771.99 596.19 770.11C596.19 768.47 595.68 767.18 594.66 766.26C593.66 765.33 592.01 764.64 589.71 764.17L586.96 763.64C583.58 762.97 581.14 761.91 579.64 760.48C578.13 759.05 577.37 757.05 577.37 754.5C577.37 751.54 578.41 749.21 580.49 747.51C582.58 745.81 585.45 744.96 589.11 744.96C590.68 744.96 592.27 745.1 593.9 745.39C595.53 745.67 597.19 746.09 598.9 746.66Z"></path>
			<g id="logotext1">
				<path id="Compounds" class="shp0 svg-elem-12" d="M409.78 687.89C413 687.89 417.71 689.16 419.89 691.18C419.81 692.83 418.69 695.15 416.67 694.77C414.72 693.8 412.1 692.9 409.26 692.9C405.29 692.9 401.41 694.85 401.41 699.41C401.41 703.9 404.33 705.92 410.83 709.36C418.91 713.77 421.83 716.69 421.83 723.35C421.83 731.73 414.57 736.89 405.82 736.89C400.81 736.89 397.06 735.32 395.35 734.05C394.45 733.37 394 732.7 394 731.88C394.15 730.23 394.67 729.19 395.2 728.21C398.04 730.31 402.45 731.8 405.96 731.8C410.83 731.8 414.95 729.41 414.95 724.62C414.95 720.06 412.4 718.04 405.37 714.38C396.09 709.44 394.82 705.02 394.82 700.23C394.82 695.6 398.11 687.89 409.71 687.89L409.78 687.89Z"></path>
				<path id="Compoundh" class="shp0 svg-elem-13" d="M458.22 709.62L458.22 692.73C458.22 691.34 458.64 691.06 459.68 690.99C460.94 690.78 463.31 690.71 464.85 690.71C464.71 693.36 464.64 697.48 464.64 703.34L464.64 725.88C464.64 730.76 464.78 733.07 464.85 734.46C463.59 734.74 460.45 735.02 459.34 735.02C458.57 735.02 458.22 734.81 458.22 733.84L458.22 714.08C456.83 714.23 454.52 714.3 448.45 714.3L435.75 714.3L435.75 732.93C435.75 734.32 435.33 734.53 433.94 734.74C432.19 735.02 430.79 735.02 429.12 735.02C429.26 732.23 429.33 728.11 429.33 722.25L429.33 700.13C429.33 695.46 429.26 692.59 429.12 691.27C430.45 690.99 433.31 690.71 434.5 690.71C435.47 690.71 435.75 691.2 435.75 694.34L435.75 709.62L458.22 709.62Z"></path>
				<path id="Compounda" fill-rule="evenodd" class="shp0 svg-elem-14" d="M483.05 721.41C480.68 726.79 478.66 731.67 477.47 734.18C477.19 734.74 476.71 735.02 475.87 735.02C474.68 735.02 472.31 734.67 471.19 734.18L471.26 733.76C475.31 725.18 486.82 698.87 489.19 693.44L488.28 691.41C489.96 691.06 492.55 690.71 493.38 690.71C494.22 690.71 494.71 691.2 494.99 691.9C498.19 699.3 504.27 714.08 506.99 720.44C509.92 727.07 511.66 731.39 512.92 733.9L512.92 734.25C511.46 734.74 508.52 735.02 507.41 735.02C506.5 735.02 505.94 734.6 505.24 732.99C503.71 729.3 502.66 726.72 500.43 721.41L483.05 721.41ZM498.89 716.81C495.26 707.53 492.89 701.81 491.85 699.3C489.54 704.88 487.38 710.53 484.73 716.81L498.89 716.81Z"></path>
				<path id="Compoundu" class="shp0 svg-elem-15" d="M524.01 714.3C524.01 728.6 530.85 730.83 535.94 730.83C541.87 730.83 548.08 728.81 548.08 713.32L548.08 692.67C548.08 691.34 548.64 691.06 549.48 690.99C551.5 690.78 552.55 690.71 553.95 690.71C553.81 693.44 553.73 697.55 553.73 703.34L553.73 713.04C553.73 733.42 543.07 735.65 535.25 735.65C524.64 735.65 517.59 730.34 517.59 714.36L517.59 700.2C517.59 695.53 517.52 692.67 517.38 691.27C518.43 691.06 521.64 690.71 522.75 690.71C523.87 690.71 524.01 691.2 524.01 694.48L524.01 714.3Z"></path>
				<path id="Compoundr" fill-rule="evenodd" class="shp0 svg-elem-16" d="M570.83 733.07C570.83 734.32 570.41 734.67 569.5 734.81C567.55 735.02 565.25 735.02 564.34 735.02C564.48 732.23 564.55 728.11 564.55 722.25L564.55 698.87C564.55 695.46 564.55 693.78 564.41 691.62C566.36 691.2 571.46 690.57 574.81 690.57C584.36 690.57 590.51 693.92 590.51 703.13C590.51 710.25 584.43 713.46 581.85 714.65C583.67 716.04 585.97 719.32 588.55 723.44C591.97 729.09 594.69 732.51 596.3 734.19L596.3 734.6C595.67 734.95 593.99 735.16 592.11 735.16C590.09 735.16 588.41 734.4 586.67 731.95C584.64 729.16 583.18 726.58 580.53 722.11C577.87 717.79 576.83 716.32 572.58 716.32L570.83 716.32L570.83 733.07ZM570.83 712.27C572.71 712.48 577.32 712.41 578.29 712.06C580.95 711.16 583.88 708.57 583.88 703.55C583.88 697.13 579.48 694.69 574.95 694.69C573.41 694.69 571.94 694.76 570.83 694.97L570.83 712.27Z"></path>
				<path id="Compounda" fill-rule="evenodd" class="shp0 svg-elem-17" d="M611.64 721.41C609.27 726.79 607.25 731.67 606.06 734.18C605.78 734.74 605.29 735.02 604.46 735.02C603.27 735.02 600.9 734.67 599.78 734.18L599.85 733.76C603.9 725.18 615.41 698.87 617.78 693.44L616.88 691.41C618.55 691.06 621.14 690.71 621.97 690.71C622.81 690.71 623.3 691.2 623.58 691.9C626.79 699.3 632.86 714.08 635.58 720.44C638.51 727.07 640.25 731.39 641.51 733.9L641.51 734.25C640.05 734.74 637.11 735.02 635.99 735.02C635.09 735.02 634.53 734.6 633.83 732.99C632.3 729.3 631.25 726.72 629.02 721.41L611.64 721.41ZM627.48 716.81C623.85 707.53 621.49 701.81 620.43 699.3C618.14 704.88 615.97 710.53 613.32 716.81L627.48 716.81Z"></path>
				<path id="logotextn" class="shp0 svg-elem-18" d="M646.74 691.62L646.74 691.27C647.65 691.06 651.56 690.71 652.53 690.71C653.09 690.71 653.72 691.13 654.35 691.9C656.72 694.9 663.48 704.74 670.53 714.23C674.02 719.18 677.02 723.23 678.9 726.65C678.42 719.81 678.49 715.9 678.49 712.34L678.49 692.94C678.49 691.34 678.97 691.06 679.81 690.99C681.97 690.78 682.67 690.71 684 690.71C683.86 693.71 683.79 697.76 683.79 703.55L683.79 734.46C683.3 734.81 680.65 735.51 679.32 735.51C678.84 735.51 678.49 735.3 678.14 734.95C673.53 728.81 667.12 719.88 660.9 711.16C658.39 707.39 656.09 703.76 653.37 699.29C653.72 707.46 653.72 711.09 653.72 714.65L653.72 732.65C653.72 734.32 653.3 734.53 652.25 734.74C651.13 734.95 649.52 735.02 648.2 735.02C648.34 732.23 648.41 728.18 648.41 722.32L648.41 693.92L646.74 691.62Z"></path>
			</g>
			<path id="logoamblem" fill-rule="evenodd" class="shp0 svg-elem-19" d="M552.4 660.68L552.16 660.75L552.12 660.73L551.98 660.77C547.91 661.69 543.74 662.15 539.6 662.15C511.32 662.15 487.41 641.04 483.95 613.02L489.56 613.02C492.34 633.24 506.87 649.65 526.66 654.9L527.15 655.03L527.15 598.92L483.98 598.92C487.53 571.02 511.42 550 539.6 550C567.76 550 591.67 571.02 595.22 598.92L589.61 598.92C586.76 578.85 572.26 562.52 552.58 557.27L552.11 557.14L552.1 613L593.57 613L593.54 613.02L595.25 613.02C595.25 613.03 595.25 613.03 595.25 613.03C592.38 636.19 575.17 655.34 552.4 660.68ZM527.15 593.36L527.15 557.13L526.66 557.25C509.25 561.88 495.52 575.53 490.85 592.88L490.72 593.36L527.15 593.36ZM546.54 656.13L546.54 618.56L532.71 618.56L532.71 656.12L533.04 656.16C535.25 656.45 537.45 656.59 539.6 656.59C541.77 656.59 543.99 656.44 546.21 656.15L546.54 656.13ZM546.54 613L546.54 598.92L532.72 598.92L532.72 613L546.54 613ZM546.54 556.04L546.21 556C541.82 555.42 537.5 555.42 533.04 555.99L532.71 556.04L532.71 593.36L546.54 593.36L546.54 556.04ZM588.42 619.04L588.55 618.56L552.1 618.56L552.11 655.01L552.58 654.89C570.07 650.23 583.81 636.49 588.42 619.04Z"></path>
		</g>
	</g>
</svg>