<svg xmlns="http://www.w3.org/2000/svg" xmlns:xlink="http://www.w3.org/1999/xlink" width="500" zoomAndPan="magnify" viewBox="0 0 375 374.999991" height="500" preserveAspectRatio="xMidYMid meet" version="1.0"><defs><g/><clipPath id="9fbef9d26d"><path d="M 169.015625 74.445312 L 205.984375 74.445312 L 205.984375 107.550781 L 169.015625 107.550781 Z M 169.015625 74.445312 " clip-rule="nonzero"/></clipPath><clipPath id="866fda5caf"><path d="M 175.421875 110.207031 L 199.578125 110.207031 L 199.578125 122.398438 L 175.421875 122.398438 Z M 175.421875 110.207031 " clip-rule="nonzero"/></clipPath><clipPath id="6bf6593aae"><path d="M 164.089844 125.363281 L 210.910156 125.363281 L 210.910156 132 L 164.089844 132 Z M 164.089844 125.363281 " clip-rule="nonzero"/></clipPath><clipPath id="c289b422ce"><path d="M 183.304688 79.101562 L 191.554688 79.101562 L 191.554688 87.351562 L 183.304688 87.351562 Z M 183.304688 79.101562 " clip-rule="nonzero"/></clipPath><clipPath id="907568393b"><path d="M 172 236.746094 L 203 236.746094 L 203 298 L 172 298 Z M 172 236.746094 " clip-rule="nonzero"/></clipPath><clipPath id="99b321dc29"><path d="M 135.214844 263 L 188 263 L 188 300 L 135.214844 300 Z M 135.214844 263 " clip-rule="nonzero"/></clipPath><clipPath id="a5d06b9dcf"><path d="M 186 263 L 238.714844 263 L 238.714844 300.496094 L 186 300.496094 Z M 186 263 " clip-rule="nonzero"/></clipPath><clipPath id="7a3eea5d7d"><path d="M 0 295.953125 L 375 295.953125 L 375 375 L 0 375 Z M 0 295.953125 " clip-rule="nonzero"/></clipPath></defs><g fill="#000000" fill-opacity="1"><g transform="translate(141.487986, 298.485712)"><g><path d="M 2.84375 0 L 18.59375 -162.953125 L 73.796875 -162.953125 L 89.34375 0 L 58.421875 0 L 56.15625 -26.375 L 36.421875 -26.375 L 34.53125 0 Z M 38.890625 -52.359375 L 53.6875 -52.359375 L 46.484375 -135.265625 L 44.953125 -135.265625 Z M 38.890625 -52.359375 "/></g></g></g><g clip-path="url(#9fbef9d26d)"><path fill="#000000" d="M 169.015625 74.445312 L 205.984375 74.445312 L 205.984375 107.367188 L 169.015625 107.367188 Z M 169.015625 74.445312 " fill-opacity="1" fill-rule="nonzero"/></g><g clip-path="url(#866fda5caf)"><path fill="#000000" d="M 175.421875 110.207031 L 199.683594 110.207031 L 199.683594 122.335938 L 175.421875 122.335938 Z M 175.421875 110.207031 " fill-opacity="1" fill-rule="nonzero"/></g><g clip-path="url(#6bf6593aae)"><path fill="#000000" d="M 164.089844 125.363281 L 210.875 125.363281 L 210.875 131.714844 L 164.089844 131.714844 Z M 164.089844 125.363281 " fill-opacity="1" fill-rule="nonzero"/></g><path fill="#ffffff" d="M 189.265625 83.226562 C 189.265625 83.472656 189.21875 83.703125 189.125 83.929688 C 189.03125 84.152344 188.898438 84.351562 188.726562 84.523438 C 188.554688 84.695312 188.355469 84.828125 188.132812 84.921875 C 187.90625 85.015625 187.671875 85.0625 187.429688 85.0625 C 187.1875 85.0625 186.953125 85.015625 186.730469 84.921875 C 186.503906 84.828125 186.304688 84.695312 186.132812 84.523438 C 185.960938 84.351562 185.828125 84.152344 185.738281 83.929688 C 185.644531 83.703125 185.597656 83.472656 185.597656 83.226562 C 185.597656 82.984375 185.644531 82.75 185.738281 82.527344 C 185.828125 82.300781 185.960938 82.101562 186.132812 81.929688 C 186.304688 81.757812 186.503906 81.625 186.730469 81.535156 C 186.953125 81.441406 187.1875 81.394531 187.429688 81.394531 C 187.671875 81.394531 187.90625 81.441406 188.132812 81.535156 C 188.355469 81.625 188.554688 81.757812 188.726562 81.929688 C 188.898438 82.101562 189.03125 82.300781 189.125 82.527344 C 189.21875 82.75 189.265625 82.984375 189.265625 83.226562 Z M 189.265625 83.226562 " fill-opacity="1" fill-rule="nonzero"/><g clip-path="url(#c289b422ce)"><path fill="#ffffff" d="M 187.429688 79.101562 C 185.152344 79.101562 183.304688 80.949219 183.304688 83.226562 C 183.304688 85.507812 185.152344 87.351562 187.429688 87.351562 C 189.707031 87.351562 191.554688 85.507812 191.554688 83.226562 C 191.554688 80.949219 189.707031 79.101562 187.429688 79.101562 Z M 190.386719 83.226562 C 190.386719 84.859375 189.058594 86.183594 187.429688 86.183594 C 185.800781 86.183594 184.476562 84.859375 184.476562 83.226562 C 184.476562 81.597656 185.800781 80.273438 187.429688 80.273438 C 189.058594 80.273438 190.386719 81.597656 190.386719 83.226562 Z M 190.386719 83.226562 " fill-opacity="1" fill-rule="nonzero"/></g><g clip-path="url(#907568393b)"><path fill="#ffffff" d="M 187.1875 297.054688 L 186.738281 296.710938 C 184.507812 295.003906 182.464844 293.039062 180.667969 290.875 C 178.863281 288.699219 177.300781 286.316406 176.03125 283.796875 C 174.738281 281.234375 173.742188 278.515625 173.070312 275.722656 C 172.378906 272.851562 172.027344 269.882812 172.027344 266.902344 C 172.027344 263.917969 172.378906 260.949219 173.070312 258.078125 C 173.742188 255.285156 174.738281 252.570312 176.03125 250.003906 C 177.300781 247.484375 178.863281 245.101562 180.667969 242.925781 C 182.464844 240.761719 184.507812 238.796875 186.738281 237.089844 L 187.1875 236.746094 L 187.636719 237.089844 C 189.867188 238.796875 191.910156 240.761719 193.707031 242.925781 C 195.515625 245.101562 197.074219 247.484375 198.347656 250.003906 C 199.640625 252.570312 200.636719 255.285156 201.308594 258.078125 C 202 260.949219 202.347656 263.917969 202.347656 266.902344 C 202.347656 269.882812 202 272.851562 201.308594 275.722656 C 200.636719 278.515625 199.640625 281.234375 198.347656 283.796875 C 197.074219 286.316406 195.515625 288.699219 193.707031 290.875 C 191.910156 293.039062 189.867188 295 187.636719 296.710938 Z M 187.1875 238.621094 C 178.488281 245.5 173.511719 255.773438 173.511719 266.898438 C 173.511719 278.027344 178.488281 288.300781 187.1875 295.175781 C 195.890625 288.300781 200.867188 278.027344 200.867188 266.898438 C 200.867188 255.773438 195.890625 245.5 187.1875 238.621094 Z M 187.1875 238.621094 " fill-opacity="1" fill-rule="nonzero"/><path fill="#ffffff" d="M 187.1875 297.054688 L 186.738281 296.710938 C 184.507812 295.003906 182.464844 293.039062 180.667969 290.875 C 178.863281 288.699219 177.300781 286.316406 176.03125 283.796875 C 174.738281 281.234375 173.742188 278.515625 173.070312 275.722656 C 172.378906 272.851562 172.027344 269.882812 172.027344 266.902344 C 172.027344 263.917969 172.378906 260.949219 173.070312 258.078125 C 173.742188 255.285156 174.738281 252.570312 176.03125 250.003906 C 177.300781 247.484375 178.863281 245.101562 180.667969 242.925781 C 182.464844 240.761719 184.507812 238.796875 186.738281 237.089844 L 187.1875 236.746094 L 187.636719 237.089844 C 189.867188 238.796875 191.910156 240.761719 193.707031 242.925781 C 195.515625 245.101562 197.074219 247.484375 198.347656 250.003906 C 199.640625 252.570312 200.636719 255.285156 201.308594 258.078125 C 202 260.949219 202.347656 263.917969 202.347656 266.902344 C 202.347656 269.882812 202 272.851562 201.308594 275.722656 C 200.636719 278.515625 199.640625 281.234375 198.347656 283.796875 C 197.074219 286.316406 195.515625 288.699219 193.707031 290.875 C 191.910156 293.039062 189.867188 295 187.636719 296.710938 Z M 187.1875 238.621094 C 178.488281 245.5 173.511719 255.773438 173.511719 266.898438 C 173.511719 278.027344 178.488281 288.300781 187.1875 295.175781 C 195.890625 288.300781 200.867188 278.027344 200.867188 266.898438 C 200.867188 255.773438 195.890625 245.5 187.1875 238.621094 Z M 187.1875 238.621094 " fill-opacity="1" fill-rule="nonzero"/></g><path fill="#ffffff" d="M 187.300781 296.78125 L 186.738281 296.710938 C 183.957031 296.351562 181.207031 295.675781 178.574219 294.703125 C 175.925781 293.722656 173.386719 292.445312 171.03125 290.902344 C 168.632812 289.328125 166.417969 287.476562 164.445312 285.394531 C 162.414062 283.253906 160.632812 280.859375 159.144531 278.277344 C 157.660156 275.695312 156.484375 272.945312 155.652344 270.113281 C 154.84375 267.359375 154.351562 264.503906 154.195312 261.632812 C 154.039062 258.8125 154.203125 255.96875 154.683594 253.179688 C 155.164062 250.402344 155.953125 247.675781 157.035156 245.078125 L 157.253906 244.554688 L 157.8125 244.628906 C 160.597656 244.988281 163.34375 245.664062 165.976562 246.636719 C 168.625 247.613281 171.164062 248.890625 173.519531 250.4375 C 175.917969 252.007812 178.136719 253.859375 180.109375 255.941406 C 182.136719 258.082031 183.917969 260.476562 185.40625 263.0625 C 186.890625 265.644531 188.066406 268.390625 188.898438 271.226562 C 189.710938 273.980469 190.199219 276.832031 190.359375 279.703125 C 190.511719 282.523438 190.347656 285.367188 189.867188 288.160156 C 189.390625 290.933594 188.597656 293.660156 187.515625 296.257812 Z M 158.1875 246.179688 C 154.078125 256.5 154.886719 267.894531 160.429688 277.53125 C 165.976562 287.167969 175.402344 293.570312 186.363281 295.15625 C 190.472656 284.835938 189.667969 273.441406 184.121094 263.804688 C 178.578125 254.167969 169.148438 247.769531 158.1875 246.179688 Z M 158.1875 246.179688 " fill-opacity="1" fill-rule="nonzero"/><g clip-path="url(#99b321dc29)"><path fill="#ffffff" d="M 187.261719 296.492188 L 186.738281 296.710938 C 184.148438 297.796875 181.433594 298.589844 178.667969 299.066406 C 175.886719 299.550781 173.050781 299.714844 170.242188 299.5625 C 167.382812 299.402344 164.539062 298.910156 161.792969 298.097656 C 158.96875 297.261719 156.234375 296.082031 153.660156 294.589844 C 151.085938 293.101562 148.699219 291.3125 146.566406 289.273438 C 144.492188 287.292969 142.644531 285.070312 141.078125 282.664062 C 139.539062 280.296875 138.265625 277.753906 137.292969 275.09375 C 136.324219 272.449219 135.648438 269.691406 135.289062 266.898438 L 135.21875 266.335938 L 135.742188 266.117188 C 138.328125 265.035156 141.046875 264.238281 143.8125 263.761719 C 146.59375 263.277344 149.425781 263.113281 152.238281 263.269531 C 155.097656 263.425781 157.941406 263.917969 160.683594 264.730469 C 163.507812 265.566406 166.246094 266.746094 168.820312 268.238281 C 171.394531 269.730469 173.78125 271.519531 175.914062 273.554688 C 177.988281 275.535156 179.832031 277.757812 181.398438 280.164062 C 182.9375 282.53125 184.214844 285.078125 185.1875 287.734375 C 186.15625 290.378906 186.828125 293.136719 187.1875 295.929688 Z M 136.835938 267.277344 C 138.421875 278.277344 144.796875 287.738281 154.398438 293.304688 C 164.003906 298.867188 175.355469 299.679688 185.640625 295.554688 C 184.058594 284.554688 177.683594 275.089844 168.078125 269.527344 C 158.476562 263.960938 147.121094 263.152344 136.835938 267.277344 Z M 136.835938 267.277344 " fill-opacity="1" fill-rule="nonzero"/></g><g clip-path="url(#a5d06b9dcf)"><path fill="#ffffff" d="M 186.667969 297.273438 L 186.738281 296.710938 C 187.097656 293.917969 187.769531 291.160156 188.738281 288.515625 C 189.714844 285.859375 190.988281 283.3125 192.527344 280.945312 C 194.09375 278.539062 195.941406 276.316406 198.011719 274.335938 C 200.144531 272.300781 202.53125 270.511719 205.105469 269.019531 C 207.679688 267.527344 210.417969 266.347656 213.242188 265.511719 C 215.988281 264.699219 218.828125 264.207031 221.691406 264.050781 C 224.5 263.894531 227.335938 264.058594 230.113281 264.542969 C 232.882812 265.023438 235.597656 265.816406 238.1875 266.898438 L 238.707031 267.117188 L 238.636719 267.679688 C 238.277344 270.472656 237.605469 273.230469 236.636719 275.875 C 235.660156 278.535156 234.386719 281.078125 232.847656 283.445312 C 231.28125 285.851562 229.433594 288.074219 227.363281 290.054688 C 225.226562 292.09375 222.839844 293.882812 220.269531 295.371094 C 217.695312 296.863281 214.957031 298.042969 212.132812 298.878906 C 209.386719 299.691406 206.546875 300.183594 203.683594 300.34375 C 200.875 300.496094 198.039062 300.332031 195.257812 299.851562 C 192.492188 299.371094 189.777344 298.578125 187.1875 297.492188 Z M 237.089844 268.058594 C 226.804688 263.933594 215.449219 264.742188 205.847656 270.308594 C 196.246094 275.871094 189.867188 285.335938 188.285156 296.335938 C 198.570312 300.457031 209.921875 299.648438 219.527344 294.085938 C 229.128906 288.519531 235.507812 279.058594 237.089844 268.058594 Z M 237.089844 268.058594 " fill-opacity="1" fill-rule="nonzero"/></g><path fill="#ffffff" d="M 186.957031 297.234375 L 186.738281 296.710938 C 185.65625 294.109375 184.867188 291.386719 184.390625 288.609375 C 183.90625 285.820312 183.742188 282.972656 183.898438 280.15625 C 184.054688 277.285156 184.546875 274.429688 185.355469 271.675781 C 186.1875 268.839844 187.363281 266.09375 188.851562 263.511719 C 190.335938 260.929688 192.117188 258.535156 194.148438 256.394531 C 196.121094 254.3125 198.335938 252.460938 200.734375 250.886719 C 203.089844 249.34375 205.628906 248.0625 208.277344 247.085938 C 210.914062 246.113281 213.660156 245.4375 216.441406 245.078125 L 217.003906 245.003906 L 217.222656 245.53125 C 218.300781 248.128906 219.09375 250.851562 219.570312 253.628906 C 220.050781 256.421875 220.21875 259.265625 220.0625 262.085938 C 219.902344 264.957031 219.414062 267.808594 218.605469 270.5625 C 217.769531 273.398438 216.59375 276.144531 215.109375 278.726562 C 213.625 281.308594 211.839844 283.707031 209.8125 285.847656 C 207.839844 287.925781 205.621094 289.78125 203.222656 291.351562 C 200.867188 292.898438 198.332031 294.175781 195.679688 295.152344 C 193.046875 296.125 190.300781 296.800781 187.515625 297.160156 Z M 216.066406 246.628906 C 205.105469 248.21875 195.679688 254.617188 190.132812 264.257812 C 184.589844 273.894531 183.78125 285.289062 187.890625 295.609375 C 198.851562 294.019531 208.28125 287.621094 213.824219 277.984375 C 219.371094 268.347656 220.175781 256.953125 216.066406 246.628906 Z M 216.066406 246.628906 " fill-opacity="1" fill-rule="nonzero"/><g clip-path="url(#7a3eea5d7d)"><path fill="#ffffff" d="M 0 295.953125 L 374.414062 295.953125 L 374.414062 375.054688 L 0 375.054688 Z M 0 295.953125 " fill-opacity="1" fill-rule="nonzero"/></g><path stroke-linecap="butt" transform="matrix(0.112052, 0.741582, -0.741582, 0.112052, 144.47081, 126.113267)" fill="none" stroke-linejoin="miter" d="M 0.00188603 0.998612 L 160.000301 1.001899 " stroke="#ffffff" stroke-width="2" stroke-opacity="1" stroke-miterlimit="4"/><path stroke-linecap="butt" transform="matrix(-0.112233, 0.741202, -0.741547, -0.112286, 230.732377, 132.315327)" fill="none" stroke-linejoin="miter" d="M -0.00016107 0.998194 L 168.081434 1.001975 " stroke="#ffffff" stroke-width="2" stroke-opacity="1" stroke-miterlimit="4"/><g fill="#000000" fill-opacity="1"><g transform="translate(143.096069, 315.263533)"><g><path d="M 6.238281 -10.105469 L 6.175781 -10.105469 C 6.175781 -10.210938 6.191406 -10.328125 6.191406 -10.433594 C 6.191406 -10.601562 5.953125 -11.140625 5.757812 -11.140625 C 5.351562 -11.140625 4.902344 -10.316406 4.664062 -9.804688 C 3.929688 -8.441406 3.207031 -7.0625 2.472656 -5.683594 C 2.082031 -4.933594 0.972656 -5.128906 0.328125 -4.585938 C 0.433594 -4.40625 0.554688 -4.199219 0.75 -4.199219 C 0.839844 -4.199219 0.960938 -4.226562 1.050781 -4.226562 C 1.347656 -4.199219 1.558594 -4.257812 1.558594 -3.929688 C 1.558594 -3.839844 1.527344 -3.75 1.5 -3.6875 L 0.03125 -0.523438 C 0 -0.480469 0 -0.433594 0 -0.375 C 0 -0.269531 0.03125 -0.164062 0.03125 -0.046875 C 0.148438 -0.105469 0.34375 -0.105469 0.433594 -0.195312 C 0.585938 -0.316406 0.703125 -0.507812 0.792969 -0.691406 C 1.289062 -1.769531 1.828125 -2.820312 2.277344 -3.882812 C 2.59375 -4.648438 3.132812 -4.738281 3.761719 -4.796875 C 3.851562 -4.796875 4.0625 -4.574219 4.0625 -4.4375 L 4.0625 -4.40625 C 3.929688 -3.296875 3.644531 -2.144531 3.644531 -0.988281 C 3.644531 -0.480469 3.808594 0.375 4.183594 0.375 C 4.78125 0.375 5.335938 -0.808594 5.335938 -1.4375 C 5.335938 -1.710938 4.917969 -1.949219 4.917969 -2.160156 C 5.113281 -3.222656 4.960938 -4.304688 5.515625 -5.308594 C 5.683594 -5.59375 5.5625 -6.445312 5.683594 -6.941406 C 5.847656 -8.007812 6.042969 -9.054688 6.238281 -10.105469 Z M 3.75 -5.59375 C 3.402344 -5.59375 3.253906 -5.636719 3.253906 -5.785156 C 3.253906 -5.863281 3.296875 -5.96875 3.359375 -6.101562 C 3.65625 -6.714844 3.957031 -7.332031 4.273438 -7.917969 C 4.347656 -8.050781 4.511719 -8.125 4.632812 -8.246094 C 4.664062 -8.109375 4.707031 -7.976562 4.707031 -7.855469 C 4.707031 -7.316406 4.484375 -6.6875 4.378906 -6.148438 C 4.304688 -5.785156 4.136719 -5.578125 3.808594 -5.59375 Z M 3.75 -5.59375 "/></g></g></g><g fill="#000000" fill-opacity="1"><g transform="translate(151.280876, 315.263533)"><g><path d="M 2.863281 -2.128906 C 2.640625 -2.113281 2.382812 -2.082031 2.175781 -2.082031 C 1.992188 -2.113281 1.785156 -2.160156 1.785156 -2.324219 C 1.785156 -2.414062 1.828125 -2.535156 1.890625 -2.609375 C 3.433594 -5.039062 5.1875 -7.453125 6.550781 -9.910156 C 6.597656 -9.984375 6.625 -10.121094 6.625 -10.238281 C 6.625 -10.554688 6.28125 -10.523438 6.042969 -10.523438 C 5.757812 -10.523438 5.742188 -10.417969 5.578125 -10.285156 C 5.230469 -10 3.65625 -9.835938 2.820312 -9.835938 C 2.082031 -9.835938 2.023438 -10.195312 1.410156 -10.195312 L 1.199219 -10.195312 C 1.246094 -10.058594 1.246094 -9.851562 1.335938 -9.804688 C 1.664062 -9.625 2.007812 -9.414062 2.382812 -9.339844 C 2.953125 -9.234375 4.558594 -9.085938 4.574219 -8.652344 C 4.574219 -8.621094 4.558594 -8.574219 4.527344 -8.53125 C 2.863281 -5.90625 1.230469 -3.253906 -0.660156 -0.792969 C -0.71875 -0.703125 -0.75 -0.585938 -0.75 -0.464844 C -0.75 -0.210938 -0.539062 0.03125 -0.269531 0.03125 C -0.0585938 0.03125 0.105469 -0.105469 0.269531 -0.253906 C 1.140625 -1.035156 2.203125 -1.257812 3.75 -1.273438 C 4.214844 -1.273438 4.664062 -1.230469 5.007812 -1.09375 C 5.050781 -1.078125 5.097656 -1.078125 5.140625 -1.078125 C 5.292969 -1.078125 5.457031 -1.140625 5.636719 -1.15625 C 5.503906 -1.335938 5.425781 -1.558594 5.292969 -1.695312 C 4.828125 -2.007812 3.957031 -2.144531 3.285156 -2.144531 C 3.132812 -2.144531 2.984375 -2.144531 2.863281 -2.128906 Z M 2.863281 -2.128906 "/></g></g></g><g fill="#000000" fill-opacity="1"><g transform="translate(158.656311, 315.263533)"><g><path d="M 6.238281 -10.105469 L 6.175781 -10.105469 C 6.175781 -10.210938 6.191406 -10.328125 6.191406 -10.433594 C 6.191406 -10.601562 5.953125 -11.140625 5.757812 -11.140625 C 5.351562 -11.140625 4.902344 -10.316406 4.664062 -9.804688 C 3.929688 -8.441406 3.207031 -7.0625 2.472656 -5.683594 C 2.082031 -4.933594 0.972656 -5.128906 0.328125 -4.585938 C 0.433594 -4.40625 0.554688 -4.199219 0.75 -4.199219 C 0.839844 -4.199219 0.960938 -4.226562 1.050781 -4.226562 C 1.347656 -4.199219 1.558594 -4.257812 1.558594 -3.929688 C 1.558594 -3.839844 1.527344 -3.75 1.5 -3.6875 L 0.03125 -0.523438 C 0 -0.480469 0 -0.433594 0 -0.375 C 0 -0.269531 0.03125 -0.164062 0.03125 -0.046875 C 0.148438 -0.105469 0.34375 -0.105469 0.433594 -0.195312 C 0.585938 -0.316406 0.703125 -0.507812 0.792969 -0.691406 C 1.289062 -1.769531 1.828125 -2.820312 2.277344 -3.882812 C 2.59375 -4.648438 3.132812 -4.738281 3.761719 -4.796875 C 3.851562 -4.796875 4.0625 -4.574219 4.0625 -4.4375 L 4.0625 -4.40625 C 3.929688 -3.296875 3.644531 -2.144531 3.644531 -0.988281 C 3.644531 -0.480469 3.808594 0.375 4.183594 0.375 C 4.78125 0.375 5.335938 -0.808594 5.335938 -1.4375 C 5.335938 -1.710938 4.917969 -1.949219 4.917969 -2.160156 C 5.113281 -3.222656 4.960938 -4.304688 5.515625 -5.308594 C 5.683594 -5.59375 5.5625 -6.445312 5.683594 -6.941406 C 5.847656 -8.007812 6.042969 -9.054688 6.238281 -10.105469 Z M 3.75 -5.59375 C 3.402344 -5.59375 3.253906 -5.636719 3.253906 -5.785156 C 3.253906 -5.863281 3.296875 -5.96875 3.359375 -6.101562 C 3.65625 -6.714844 3.957031 -7.332031 4.273438 -7.917969 C 4.347656 -8.050781 4.511719 -8.125 4.632812 -8.246094 C 4.664062 -8.109375 4.707031 -7.976562 4.707031 -7.855469 C 4.707031 -7.316406 4.484375 -6.6875 4.378906 -6.148438 C 4.304688 -5.785156 4.136719 -5.578125 3.808594 -5.59375 Z M 3.75 -5.59375 "/></g></g></g><g fill="#000000" fill-opacity="1"><g transform="translate(166.841117, 315.263533)"><g><path d="M 3.386719 -10.074219 C 3.359375 -10.074219 3.328125 -10.074219 3.3125 -10.105469 C 3.3125 -10.238281 3.328125 -10.390625 3.328125 -10.523438 C 3.328125 -11.050781 2.9375 -11.183594 2.652344 -11.183594 C 2.324219 -11.183594 2.1875 -10.945312 2.144531 -10.464844 C 2.007812 -9.160156 1.800781 -7.839844 1.621094 -6.550781 C 1.378906 -4.886719 0.972656 -3.269531 0.960938 -1.605469 C 0.960938 -1.378906 0.972656 -1.140625 0.988281 -0.914062 C 0.988281 -0.613281 0.570312 -0.164062 0.449219 0.148438 C 0.585938 0.226562 0.765625 0.359375 0.960938 0.359375 C 1.003906 0.359375 1.066406 0.316406 1.140625 0.285156 C 2.21875 0 3.3125 -0.210938 4.394531 -0.210938 C 5.113281 -0.210938 5.832031 -0.121094 6.550781 0.0898438 C 6.613281 0.105469 6.65625 0.105469 6.714844 0.105469 C 6.835938 0.105469 6.957031 0.0898438 7.089844 0.0585938 C 7 -0.0742188 6.925781 -0.328125 6.804688 -0.390625 C 6.070312 -0.644531 5.503906 -0.882812 4.707031 -0.882812 C 3.914062 -0.882812 3.132812 -0.703125 2.339844 -0.703125 C 2.039062 -0.703125 1.917969 -0.808594 1.917969 -1.066406 C 1.917969 -1.140625 1.917969 -1.246094 1.949219 -1.347656 C 2.070312 -1.828125 2.113281 -2.308594 2.203125 -2.820312 C 2.640625 -5.246094 3 -7.691406 3.386719 -10.074219 Z M 3.386719 -10.074219 "/></g></g></g><g fill="#000000" fill-opacity="1"><g transform="translate(174.980949, 315.263533)"><g><path d="M 2.054688 -0.0742188 L 1.992188 -0.195312 C 1.964844 -0.195312 1.933594 -0.179688 1.890625 -0.179688 C 1.199219 -0.179688 0.855469 -0.417969 0.855469 -0.808594 C 0.855469 -1.4375 1.800781 -2.921875 2.339844 -3.75 C 2.984375 -4.722656 3.71875 -5.59375 4.769531 -6.132812 C 5.050781 -6.28125 5.351562 -6.402344 5.605469 -6.582031 C 5.742188 -6.671875 5.757812 -6.910156 5.847656 -7.089844 C 5.695312 -7.121094 5.53125 -7.210938 5.367188 -7.257812 C 4.632812 -7.421875 3.628906 -7.242188 3.628906 -8.335938 C 3.628906 -9.085938 4.09375 -10.40625 5.050781 -10.40625 C 5.277344 -10.40625 5.710938 -10.179688 5.710938 -9.730469 C 5.710938 -9.671875 5.695312 -9.59375 5.695312 -9.535156 C 5.695312 -9.339844 5.800781 -9.128906 5.890625 -8.964844 C 6.101562 -9.191406 6.3125 -9.265625 6.3125 -9.714844 C 6.3125 -10.375 5.785156 -11.167969 5.007812 -11.167969 C 3.71875 -11.167969 2.789062 -9.582031 2.789062 -8.410156 C 2.789062 -7.902344 2.9375 -7.4375 3.285156 -7.089844 C 3.402344 -6.972656 3.464844 -6.835938 3.464844 -6.730469 C 3.464844 -6.402344 2.773438 -6.011719 2.382812 -5.5625 C 1.347656 -4.363281 0.449219 -3.101562 -0.226562 -1.664062 C -0.375 -1.347656 -0.449219 -1.050781 -0.449219 -0.765625 C -0.449219 0.136719 0.390625 0.945312 1.769531 0.945312 C 2.339844 0.945312 2.910156 0.792969 3.449219 0.613281 C 5.515625 -0.046875 7.226562 -1.304688 8.949219 -2.503906 C 9.160156 -2.652344 9.296875 -2.910156 9.429688 -3.101562 C 9.175781 -3.042969 8.875 -3.101562 8.605469 -2.984375 C 7.257812 -2.339844 5.890625 -1.648438 4.511719 -1.035156 C 3.703125 -0.675781 2.863281 -0.375 2.054688 -0.0742188 Z M 2.054688 -0.0742188 "/></g></g></g><g fill="#000000" fill-opacity="1"><g transform="translate(185.00932, 315.263533)"><g><path d="M 6.238281 -10.105469 L 6.175781 -10.105469 C 6.175781 -10.210938 6.191406 -10.328125 6.191406 -10.433594 C 6.191406 -10.601562 5.953125 -11.140625 5.757812 -11.140625 C 5.351562 -11.140625 4.902344 -10.316406 4.664062 -9.804688 C 3.929688 -8.441406 3.207031 -7.0625 2.472656 -5.683594 C 2.082031 -4.933594 0.972656 -5.128906 0.328125 -4.585938 C 0.433594 -4.40625 0.554688 -4.199219 0.75 -4.199219 C 0.839844 -4.199219 0.960938 -4.226562 1.050781 -4.226562 C 1.347656 -4.199219 1.558594 -4.257812 1.558594 -3.929688 C 1.558594 -3.839844 1.527344 -3.75 1.5 -3.6875 L 0.03125 -0.523438 C 0 -0.480469 0 -0.433594 0 -0.375 C 0 -0.269531 0.03125 -0.164062 0.03125 -0.046875 C 0.148438 -0.105469 0.34375 -0.105469 0.433594 -0.195312 C 0.585938 -0.316406 0.703125 -0.507812 0.792969 -0.691406 C 1.289062 -1.769531 1.828125 -2.820312 2.277344 -3.882812 C 2.59375 -4.648438 3.132812 -4.738281 3.761719 -4.796875 C 3.851562 -4.796875 4.0625 -4.574219 4.0625 -4.4375 L 4.0625 -4.40625 C 3.929688 -3.296875 3.644531 -2.144531 3.644531 -0.988281 C 3.644531 -0.480469 3.808594 0.375 4.183594 0.375 C 4.78125 0.375 5.335938 -0.808594 5.335938 -1.4375 C 5.335938 -1.710938 4.917969 -1.949219 4.917969 -2.160156 C 5.113281 -3.222656 4.960938 -4.304688 5.515625 -5.308594 C 5.683594 -5.59375 5.5625 -6.445312 5.683594 -6.941406 C 5.847656 -8.007812 6.042969 -9.054688 6.238281 -10.105469 Z M 3.75 -5.59375 C 3.402344 -5.59375 3.253906 -5.636719 3.253906 -5.785156 C 3.253906 -5.863281 3.296875 -5.96875 3.359375 -6.101562 C 3.65625 -6.714844 3.957031 -7.332031 4.273438 -7.917969 C 4.347656 -8.050781 4.511719 -8.125 4.632812 -8.246094 C 4.664062 -8.109375 4.707031 -7.976562 4.707031 -7.855469 C 4.707031 -7.316406 4.484375 -6.6875 4.378906 -6.148438 C 4.304688 -5.785156 4.136719 -5.578125 3.808594 -5.59375 Z M 3.75 -5.59375 "/></g></g></g><g fill="#000000" fill-opacity="1"><g transform="translate(193.194128, 315.263533)"><g/></g></g><g fill="#000000" fill-opacity="1"><g transform="translate(197.092266, 315.263533)"><g><path d="M 6.925781 -9.191406 C 6.6875 -10.015625 6.101562 -11.15625 5.082031 -11.15625 C 4.332031 -11.15625 3.671875 -10.375 3.269531 -9.878906 C 2.082031 -8.425781 1.289062 -6.566406 0.71875 -4.8125 C 0.496094 -4.136719 0.300781 -3.222656 0.300781 -2.339844 C 0.300781 -0.898438 0.855469 0.660156 2.699219 0.660156 C 4.257812 0.660156 5.785156 -0.691406 7.03125 -1.589844 C 7.300781 -1.785156 7.464844 -2.265625 7.464844 -2.546875 C 7.464844 -2.683594 7.421875 -2.789062 7.332031 -2.789062 C 7.300781 -2.789062 7.257812 -2.773438 7.210938 -2.742188 C 5.980469 -1.859375 4.4375 -1.109375 2.894531 -1.109375 C 2.082031 -1.109375 1.066406 -1.410156 1.066406 -2.457031 C 1.066406 -3.089844 1.363281 -3.808594 1.515625 -4.242188 C 2.023438 -5.683594 2.730469 -7.105469 3.65625 -8.320312 C 4.03125 -8.816406 4.542969 -9.550781 5.1875 -9.550781 C 5.847656 -9.550781 6.191406 -8.214844 6.28125 -8.214844 L 6.28125 -8.230469 C 6.355469 -7.976562 6.460938 -7.871094 6.550781 -7.871094 C 6.761719 -7.871094 6.957031 -8.441406 6.957031 -8.890625 C 6.957031 -8.996094 6.957031 -9.101562 6.925781 -9.191406 Z M 6.925781 -9.191406 "/></g></g></g><g fill="#000000" fill-opacity="1"><g transform="translate(206.056463, 315.263533)"><g><path d="M 3.386719 -10.074219 C 3.359375 -10.074219 3.328125 -10.074219 3.3125 -10.105469 C 3.3125 -10.238281 3.328125 -10.390625 3.328125 -10.523438 C 3.328125 -11.050781 2.9375 -11.183594 2.652344 -11.183594 C 2.324219 -11.183594 2.1875 -10.945312 2.144531 -10.464844 C 2.007812 -9.160156 1.800781 -7.839844 1.621094 -6.550781 C 1.378906 -4.886719 0.972656 -3.269531 0.960938 -1.605469 C 0.960938 -1.378906 0.972656 -1.140625 0.988281 -0.914062 C 0.988281 -0.613281 0.570312 -0.164062 0.449219 0.148438 C 0.585938 0.226562 0.765625 0.359375 0.960938 0.359375 C 1.003906 0.359375 1.066406 0.316406 1.140625 0.285156 C 2.21875 0 3.3125 -0.210938 4.394531 -0.210938 C 5.113281 -0.210938 5.832031 -0.121094 6.550781 0.0898438 C 6.613281 0.105469 6.65625 0.105469 6.714844 0.105469 C 6.835938 0.105469 6.957031 0.0898438 7.089844 0.0585938 C 7 -0.0742188 6.925781 -0.328125 6.804688 -0.390625 C 6.070312 -0.644531 5.503906 -0.882812 4.707031 -0.882812 C 3.914062 -0.882812 3.132812 -0.703125 2.339844 -0.703125 C 2.039062 -0.703125 1.917969 -0.808594 1.917969 -1.066406 C 1.917969 -1.140625 1.917969 -1.246094 1.949219 -1.347656 C 2.070312 -1.828125 2.113281 -2.308594 2.203125 -2.820312 C 2.640625 -5.246094 3 -7.691406 3.386719 -10.074219 Z M 3.386719 -10.074219 "/></g></g></g><g fill="#000000" fill-opacity="1"><g transform="translate(214.196296, 315.263533)"><g><path d="M 0.449219 -2.878906 C 0.570312 -2.007812 0.539062 0.015625 2.097656 0.015625 C 2.503906 0.015625 2.894531 -0.179688 3.132812 -0.554688 C 3.808594 -1.605469 4.394531 -2.699219 5.050781 -3.777344 C 5.140625 -3.929688 5.246094 -4.03125 5.367188 -4.167969 C 5.414062 -4.019531 5.53125 -3.867188 5.53125 -3.734375 C 5.53125 -2.847656 5.277344 -1.992188 5.277344 -1.167969 C 5.277344 -0.570312 5.652344 0.269531 6.207031 0.269531 C 6.851562 0.269531 7.347656 -0.824219 7.347656 -1.15625 C 7.347656 -1.621094 6.851562 -2.023438 6.851562 -2.535156 C 6.851562 -3.179688 6.988281 -3.808594 7.078125 -4.484375 C 7.269531 -5.953125 7.570312 -7.421875 7.734375 -8.890625 C 7.75 -8.980469 7.75 -9.070312 7.75 -9.144531 C 7.75 -9.582031 7.585938 -9.773438 7.226562 -9.773438 C 6.941406 -9.773438 6.492188 -9.683594 6.296875 -9.207031 C 5.605469 -7.527344 4.976562 -5.800781 4.226562 -4.121094 C 3.75 -3.042969 3.132812 -2.054688 2.488281 -1.09375 C 2.367188 -0.914062 2.21875 -0.824219 2.039062 -0.839844 C 1.304688 -0.839844 1.289062 -2.578125 1.289062 -3.566406 C 1.289062 -6.042969 1.800781 -8.5 2.175781 -10.945312 C 2.175781 -11.019531 2.1875 -11.09375 2.1875 -11.167969 C 2.1875 -11.363281 2.160156 -11.558594 2.144531 -11.769531 L 1.542969 -11.09375 C 1.5 -11.050781 1.527344 -10.972656 1.5 -10.945312 C 0.703125 -8.394531 0.644531 -5.726562 0.449219 -2.878906 Z M 0.449219 -2.878906 "/></g></g></g><g fill="#000000" fill-opacity="1"><g transform="translate(223.894928, 315.263533)"><g><path d="M 2.175781 0.71875 C 2.398438 0.945312 2.640625 1.066406 2.910156 1.066406 C 4.257812 1.066406 5.863281 -1.410156 6.492188 -3.089844 C 6.566406 -3.3125 6.613281 -3.523438 6.613281 -3.734375 C 6.613281 -4.664062 5.890625 -5.546875 4.902344 -5.636719 C 4.648438 -5.652344 4.527344 -5.695312 4.527344 -5.847656 C 4.527344 -6.207031 5.382812 -7.285156 5.726562 -7.886719 C 6.085938 -8.5 6.476562 -9.128906 6.460938 -9.878906 L 6.460938 -10.046875 C 6.460938 -10.121094 6.476562 -10.195312 6.476562 -10.269531 C 6.476562 -11.273438 5.832031 -11.84375 4.933594 -11.84375 C 3.269531 -11.84375 1.378906 -10.660156 0.496094 -9.59375 C 0.449219 -9.550781 0.449219 -9.476562 0.449219 -9.398438 C 0.449219 -9.308594 0.464844 -9.191406 0.464844 -9.085938 C 0.71875 -9.191406 0.808594 -9.101562 1.125 -9.398438 C 2.039062 -10.269531 3.523438 -11.246094 4.769531 -11.246094 C 5.425781 -11.246094 5.832031 -10.839844 5.832031 -10.226562 C 5.832031 -10 5.773438 -9.566406 5.636719 -9.429688 C 4.902344 -8.15625 4.167969 -6.882812 3.402344 -5.605469 C 3.222656 -5.308594 2.742188 -4.84375 2.503906 -4.84375 C 2.355469 -4.84375 2.292969 -4.949219 2.292969 -5.113281 C 2.292969 -5.140625 2.292969 -5.15625 2.308594 -5.1875 C 2.472656 -6.265625 2.847656 -7.4375 2.847656 -8.5 C 2.847656 -8.832031 2.714844 -9.011719 2.175781 -9.011719 C 1.722656 -9.011719 1.515625 -8.5625 1.410156 -7.929688 C 1.109375 -6.265625 0.808594 -4.617188 0.554688 -2.953125 C 0.523438 -2.730469 0.507812 -2.503906 0.507812 -2.277344 C 0.507812 -1.890625 0.554688 -1.515625 0.601562 -1.15625 C 0.628906 -0.945312 0.871094 -0.765625 1.035156 -0.554688 C 1.273438 -0.808594 1.527344 -0.960938 1.605469 -1.410156 C 1.753906 -2.308594 1.964844 -3.179688 2.832031 -3.71875 L 2.953125 -3.851562 C 3.359375 -4.46875 4.257812 -4.902344 4.871094 -4.902344 C 5.335938 -4.902344 5.695312 -4.40625 5.695312 -3.972656 C 5.695312 -3.851562 5.683594 -3.734375 5.636719 -3.613281 C 5.292969 -2.398438 4.542969 -1.394531 3.734375 -0.433594 C 3.582031 -0.253906 3.386719 -0.015625 3.164062 -0.015625 C 2.699219 -0.015625 2.667969 -0.703125 2.488281 -0.703125 C 2.265625 -0.703125 1.980469 -0.316406 1.980469 0.046875 C 1.980469 0.226562 2.039062 0.449219 2.175781 0.71875 Z M 2.175781 0.71875 "/></g></g></g></svg>