<svg xmlns="http://www.w3.org/2000/svg" xmlns:xlink="http://www.w3.org/1999/xlink" width="500" zoomAndPan="magnify" viewBox="0 0 375 374.999991" height="500" preserveAspectRatio="xMidYMid meet" version="1.0"><defs><g/><clipPath id="29af4e65b8"><path d="M 21.117188 181.5 L 353.882812 181.5 L 353.882812 205.882812 L 21.117188 205.882812 Z M 21.117188 181.5 " clip-rule="nonzero"/></clipPath></defs><g fill="#000000" fill-opacity="1"><g transform="translate(88.167486, 233.624985)"><g><path d="M 70.8125 -28.65625 L 84.171875 0 L 97.671875 0 L 52.3125 -97.390625 L 45.359375 -97.390625 L 4.171875 0 L 10.578125 0 L 22.8125 -28.65625 Z M 67.890625 -34.921875 L 25.453125 -34.921875 L 45.5 -81.8125 L 46.046875 -81.8125 Z M 67.890625 -34.921875 "/></g></g></g><g fill="#000000" fill-opacity="1"><g transform="translate(178.173374, 233.624985)"><g><path d="M 100.3125 -17.953125 C 90.851562 -9.046875 79.628906 -4.59375 66.640625 -4.59375 C 59.410156 -4.59375 53.007812 -5.84375 47.4375 -8.34375 C 41.875 -10.851562 37.238281 -14.191406 33.53125 -18.359375 C 29.820312 -22.535156 27.015625 -27.359375 25.109375 -32.828125 C 23.210938 -38.304688 22.265625 -44.015625 22.265625 -49.953125 C 22.265625 -56.253906 23.257812 -62.023438 25.25 -67.265625 C 27.25 -72.503906 30.054688 -77.023438 33.671875 -80.828125 C 37.285156 -84.628906 41.570312 -87.597656 46.53125 -89.734375 C 51.5 -91.867188 56.90625 -92.9375 62.75 -92.9375 C 66.738281 -92.9375 70.378906 -92.472656 73.671875 -91.546875 C 76.960938 -90.617188 79.878906 -89.410156 82.421875 -87.921875 C 84.972656 -86.441406 87.0625 -84.75 88.6875 -82.84375 C 90.3125 -80.945312 91.445312 -79.023438 92.09375 -77.078125 L 102.390625 -77.078125 C 101.003906 -80.234375 99.21875 -83.15625 97.03125 -85.84375 C 94.851562 -88.53125 92.140625 -90.847656 88.890625 -92.796875 C 85.648438 -94.742188 81.847656 -96.273438 77.484375 -97.390625 C 73.128906 -98.503906 68.171875 -99.0625 62.609375 -99.0625 C 54.535156 -99.0625 47.179688 -97.898438 40.546875 -95.578125 C 33.921875 -93.253906 28.242188 -89.9375 23.515625 -85.625 C 18.785156 -81.3125 15.117188 -76.117188 12.515625 -70.046875 C 9.921875 -63.972656 8.625 -57.179688 8.625 -49.671875 C 8.625 -43.171875 9.664062 -36.835938 11.75 -30.671875 C 13.84375 -24.503906 17.066406 -19.03125 21.421875 -14.25 C 25.785156 -9.476562 31.351562 -5.628906 38.125 -2.703125 C 44.894531 0.210938 52.960938 1.671875 62.328125 1.671875 C 68.265625 1.671875 73.570312 1.113281 78.25 0 C 82.9375 -1.113281 87.019531 -2.476562 90.5 -4.09375 C 93.976562 -5.71875 96.875 -7.457031 99.1875 -9.3125 C 101.507812 -11.175781 103.273438 -12.800781 104.484375 -14.1875 Z M 100.3125 -17.953125 "/></g></g></g><g clip-path="url(#29af4e65b8)"><path fill="#faf6f5" d="M 21.117188 181.5 L 353.691406 181.5 L 353.691406 206.136719 L 21.117188 206.136719 Z M 21.117188 181.5 " fill-opacity="1" fill-rule="nonzero"/></g><g fill="#000000" fill-opacity="1"><g transform="translate(134.234797, 200.896979)"><g><path d="M 8.0625 -7.460938 C 7.148438 -7.460938 4.574219 -7.917969 3.972656 -7.125 C 3.800781 -6.929688 3.828125 -5.824219 3.972656 -5.824219 C 4.089844 -5.824219 4.164062 -6.183594 4.957031 -6.546875 C 5.488281 -6.761719 6.546875 -6.738281 7.414062 -6.714844 C 4.574219 -3.464844 1.972656 -1.539062 1.972656 -1.539062 C 1.972656 -1.539062 2.742188 -3.5625 2.742188 -3.707031 C 2.742188 -3.828125 0.84375 -5.4375 0.578125 -5.4375 C 0.578125 -5.4375 0.433594 -5.320312 0.386719 -5.199219 C 0.167969 -4.644531 -0.242188 -1.445312 -0.242188 -1.277344 C -0.242188 -1.105469 1.277344 0.191406 1.492188 0.191406 C 1.683594 0.191406 5.269531 -2.695312 8.59375 -6.667969 C 9.21875 -6.667969 10.613281 -6.761719 11.527344 -6.8125 L 9.820312 -1.421875 C 9.820312 -1.421875 10.203125 -0.9375 10.613281 -0.578125 C 11.238281 -0.0234375 11.261719 -0.0703125 11.625 0.191406 C 11.625 0.191406 17.304688 -14.246094 17.304688 -15.257812 C 17.304688 -15.476562 17.28125 -15.546875 16.992188 -15.789062 C 16.511719 -16.222656 14.898438 -17.28125 14.898438 -17.28125 L 14.875 -17.257812 C 14.707031 -16.945312 11.984375 -12.25 8.207031 -7.628906 Z M 13.816406 -13.910156 L 11.792969 -7.628906 L 9.265625 -7.484375 C 11.867188 -10.6875 13.1875 -12.78125 13.816406 -13.910156 Z M 13.816406 -13.910156 "/></g></g></g><g fill="#000000" fill-opacity="1"><g transform="translate(150.570527, 200.896979)"><g><path d="M 1.421875 -10.589844 C 1.421875 -10.589844 2.285156 -7.390625 2.597656 -7.628906 C 2.914062 -7.820312 6.835938 -8.304688 6.570312 -8.085938 C 5.96875 -7.414062 -0.242188 -1.78125 -0.242188 -1.78125 L 0.601562 0.3125 L 3.875 0.3125 C 4.765625 0.3125 7.558594 0.121094 7.558594 0.121094 C 7.558594 0.121094 6.425781 -2.550781 6.160156 -2.550781 C 5.511719 -2.550781 1.492188 -2.140625 1.636719 -2.261719 C 2.574219 -3.226562 9.410156 -8.832031 9.410156 -8.832031 L 8.496094 -10.6875 C 8.496094 -10.6875 5.847656 -10.589844 4.765625 -10.589844 Z M 1.421875 -10.589844 "/></g></g></g><g fill="#000000" fill-opacity="1"><g transform="translate(158.774487, 200.896979)"><g><path d="M 8.207031 0.386719 L 8.230469 0.386719 L 8.230469 0.359375 C 8.398438 0.289062 9.050781 -0.046875 9.769531 -0.601562 C 10.589844 -1.226562 11.816406 -2.71875 11.816406 -2.71875 L 11.695312 -2.9375 C 11.695312 -2.9375 9.890625 -1.492188 9.3125 -1.203125 C 9.121094 -1.105469 8.976562 -1.058594 8.832031 -1.011719 C 9.867188 -3.371094 11.816406 -8.015625 11.816406 -8.710938 C 11.816406 -8.976562 11.792969 -9.023438 11.550781 -9.289062 C 11.121094 -9.675781 9.507812 -10.710938 9.507812 -10.710938 L 8.90625 -8.855469 C 8.496094 -9.457031 7.652344 -10.660156 7.246094 -10.660156 C 5.609375 -10.660156 0.480469 -8.664062 0.480469 -3.34375 C 0.480469 -2.40625 0.578125 -1.132812 0.722656 -0.988281 C 1.226562 -0.554688 2.625 0.3125 2.9375 0.3125 C 3.515625 0.3125 6.257812 -2.839844 7.582031 -4.691406 L 6.449219 -1.203125 C 6.449219 -1.203125 6.835938 -0.699219 7.246094 -0.359375 C 7.847656 0.121094 7.871094 0.121094 8.207031 0.359375 Z M 3.007812 -0.890625 C 3.007812 -0.890625 2.863281 -0.890625 2.863281 -1.683594 C 2.863281 -5.390625 5.65625 -8.785156 7.796875 -8.785156 C 8.328125 -8.785156 8.640625 -8.710938 8.832031 -8.640625 L 7.964844 -5.921875 C 6.90625 -4.691406 3.539062 -0.890625 3.007812 -0.890625 Z M 3.007812 -0.890625 "/></g></g></g><g fill="#000000" fill-opacity="1"><g transform="translate(170.827805, 200.896979)"><g><path d="M 2.046875 0.386719 C 2.046875 0.386719 2.792969 0.0234375 3.609375 -0.601562 C 4.429688 -1.277344 5.703125 -2.742188 5.703125 -2.742188 L 5.511719 -2.9375 C 5.511719 -2.9375 3.777344 -1.492188 3.152344 -1.203125 C 2.9375 -1.105469 2.769531 -1.058594 2.597656 -1.011719 C 3.996094 -4.597656 7.582031 -13.886719 7.582031 -14.65625 C 7.582031 -14.898438 7.53125 -14.96875 7.246094 -15.234375 C 6.8125 -15.644531 5.199219 -16.605469 5.199219 -16.605469 L 0.242188 -1.226562 C 0.242188 -1.226562 0.625 -0.722656 1.035156 -0.410156 C 1.636719 0.121094 1.707031 0.0703125 2.046875 0.386719 Z M 2.046875 0.386719 "/></g></g></g><g fill="#000000" fill-opacity="1"><g transform="translate(176.96273, 200.896979)"><g><path d="M 9.167969 -8.496094 C 9.167969 -8.496094 7.820312 -10.660156 7.21875 -10.660156 C 5.582031 -10.660156 0.480469 -8.664062 0.480469 -3.34375 C 0.480469 -2.40625 0.554688 -1.132812 0.675781 -0.988281 C 1.226562 -0.554688 2.550781 0.3125 2.886719 0.3125 C 3.007812 0.242188 3.730469 -0.0976562 4.476562 -0.675781 C 5.34375 -1.324219 6.546875 -2.769531 6.546875 -2.769531 L 6.402344 -2.984375 C 6.402344 -2.984375 4.644531 -1.515625 3.996094 -1.277344 C 3.417969 -0.988281 3.007812 -0.890625 3.007812 -0.890625 C 3.007812 -0.890625 2.792969 -0.890625 2.792969 -1.683594 C 2.792969 -2.308594 2.863281 -2.960938 3.007812 -3.5625 C 3.660156 -3.851562 5.03125 -4.523438 6.015625 -5.125 C 7.363281 -5.96875 9.167969 -8.496094 9.167969 -8.496094 Z M 7.820312 -8.785156 L 7.917969 -8.785156 C 7.558594 -8.207031 6.402344 -6.449219 5.777344 -5.898438 C 5.125 -5.34375 3.800781 -4.546875 3.199219 -4.210938 C 4.066406 -6.8125 6.136719 -8.785156 7.820312 -8.785156 Z M 7.820312 -8.785156 "/></g></g></g><g fill="#000000" fill-opacity="1"><g transform="translate(185.407268, 200.896979)"><g><path d="M 8.207031 0.386719 L 8.230469 0.386719 L 8.230469 0.359375 C 8.398438 0.289062 9.050781 -0.046875 9.769531 -0.601562 C 10.589844 -1.226562 11.816406 -2.71875 11.816406 -2.71875 L 11.695312 -2.9375 C 11.695312 -2.9375 9.890625 -1.492188 9.3125 -1.203125 C 9.121094 -1.105469 8.976562 -1.058594 8.832031 -1.011719 C 9.867188 -3.371094 11.816406 -8.015625 11.816406 -8.710938 C 11.816406 -8.976562 11.792969 -9.023438 11.550781 -9.289062 C 11.121094 -9.675781 9.507812 -10.710938 9.507812 -10.710938 L 8.90625 -8.855469 C 8.496094 -9.457031 7.652344 -10.660156 7.246094 -10.660156 C 5.609375 -10.660156 0.480469 -8.664062 0.480469 -3.34375 C 0.480469 -2.40625 0.578125 -1.132812 0.722656 -0.988281 C 1.226562 -0.554688 2.625 0.3125 2.9375 0.3125 C 3.515625 0.3125 6.257812 -2.839844 7.582031 -4.691406 L 6.449219 -1.203125 C 6.449219 -1.203125 6.835938 -0.699219 7.246094 -0.359375 C 7.847656 0.121094 7.871094 0.121094 8.207031 0.359375 Z M 3.007812 -0.890625 C 3.007812 -0.890625 2.863281 -0.890625 2.863281 -1.683594 C 2.863281 -5.390625 5.65625 -8.785156 7.796875 -8.785156 C 8.328125 -8.785156 8.640625 -8.710938 8.832031 -8.640625 L 7.964844 -5.921875 C 6.90625 -4.691406 3.539062 -0.890625 3.007812 -0.890625 Z M 3.007812 -0.890625 "/></g></g></g><g fill="#000000" fill-opacity="1"><g transform="translate(197.460585, 200.896979)"><g/></g></g><g fill="#000000" fill-opacity="1"><g transform="translate(202.272287, 200.896979)"><g><path d="M 13.5 -17.136719 C 13.5 -17.136719 13.429688 -16.367188 13.261719 -15.597656 C 12.851562 -16.199219 12.082031 -17.28125 11.695312 -17.28125 C 10.109375 -17.28125 1.925781 -14.777344 1.925781 -5.414062 C 1.925781 -3.539062 3.488281 -1.058594 3.609375 -0.9375 C 4.066406 -0.480469 5.753906 0.167969 6.066406 0.191406 L 6.089844 0.191406 C 6.183594 0.144531 6.859375 -0.167969 7.605469 -0.746094 C 8.421875 -1.371094 9.628906 -2.769531 9.628906 -2.769531 L 9.484375 -3.007812 C 9.484375 -3.007812 7.75 -1.613281 7.148438 -1.324219 C 6.570312 -1.035156 5.945312 -0.769531 5.945312 -0.769531 C 5.945312 -0.769531 4.980469 -2.191406 4.980469 -4.523438 C 4.980469 -12.226562 10.179688 -15.308594 12.273438 -15.308594 C 12.730469 -15.308594 12.972656 -15.28125 13.164062 -15.257812 C 13.09375 -14.992188 13.019531 -14.753906 12.925781 -14.5625 C 12.707031 -14.105469 12.179688 -13.214844 12.179688 -13.140625 C 12.179688 -13.019531 12.441406 -12.925781 12.875 -12.925781 C 13.429688 -12.925781 15.089844 -16.027344 15.089844 -16.367188 C 15.089844 -16.703125 13.910156 -17.136719 13.5 -17.136719 Z M 13.5 -17.136719 "/></g></g></g><g fill="#000000" fill-opacity="1"><g transform="translate(214.46996, 200.896979)"><g><path d="M 2.046875 0.386719 C 2.046875 0.386719 2.792969 0.0234375 3.609375 -0.601562 C 4.429688 -1.277344 5.703125 -2.742188 5.703125 -2.742188 L 5.511719 -2.9375 C 5.511719 -2.9375 3.777344 -1.492188 3.152344 -1.203125 C 2.9375 -1.105469 2.769531 -1.058594 2.597656 -1.011719 C 3.996094 -4.597656 7.582031 -13.886719 7.582031 -14.65625 C 7.582031 -14.898438 7.53125 -14.96875 7.246094 -15.234375 C 6.8125 -15.644531 5.199219 -16.605469 5.199219 -16.605469 L 0.242188 -1.226562 C 0.242188 -1.226562 0.625 -0.722656 1.035156 -0.410156 C 1.636719 0.121094 1.707031 0.0703125 2.046875 0.386719 Z M 2.046875 0.386719 "/></g></g></g><g fill="#000000" fill-opacity="1"><g transform="translate(220.604886, 200.896979)"><g><path d="M 5.992188 -1.226562 C 5.992188 -1.226562 6.378906 -0.722656 6.738281 -0.410156 C 7.339844 0.0976562 7.363281 0.0703125 7.726562 0.359375 L 7.726562 0.386719 L 7.75 0.386719 L 7.75 0.359375 C 7.894531 0.289062 8.542969 -0.046875 9.265625 -0.601562 C 10.109375 -1.277344 11.335938 -2.742188 11.335938 -2.742188 L 11.191406 -2.9375 C 11.191406 -2.9375 9.433594 -1.492188 8.832031 -1.203125 C 8.640625 -1.132812 8.496094 -1.082031 8.375 -1.058594 C 9.386719 -3.441406 11.335938 -8.039062 11.335938 -8.785156 C 11.335938 -8.976562 11.3125 -9.023438 11.09375 -9.3125 C 10.589844 -9.699219 8.976562 -10.710938 8.976562 -10.710938 L 7.964844 -7.53125 C 6.957031 -6.449219 4.8125 -4.117188 3.296875 -2.527344 C 4.355469 -4.980469 5.679688 -8.160156 5.679688 -8.785156 C 5.679688 -8.976562 5.632812 -9.023438 5.367188 -9.3125 C 4.886719 -9.699219 3.320312 -10.710938 3.320312 -10.710938 L 0.242188 -1.226562 C 0.242188 -1.226562 0.625 -0.722656 1.035156 -0.410156 C 1.683594 0.121094 1.683594 0.0703125 2.023438 0.386719 C 2.023438 0.386719 2.140625 0.0976562 2.359375 -0.359375 C 3.105469 -0.816406 6.183594 -4.523438 7.558594 -6.183594 Z M 5.992188 -1.226562 "/></g></g></g><g fill="#000000" fill-opacity="1"><g transform="translate(232.177036, 200.896979)"><g><path d="M 11.238281 -14.921875 C 11.238281 -15.355469 9.914062 -16.511719 9.675781 -16.511719 C 9.363281 -16.511719 6.328125 -14.730469 4.621094 -12.296875 C 4.066406 -11.550781 3.539062 -10.6875 3.105469 -9.820312 C 2.863281 -9.746094 2.527344 -9.652344 2.308594 -9.652344 C 2.023438 -9.652344 1.515625 -9.914062 1.515625 -9.914062 L 1.757812 -9.242188 C 1.757812 -9.242188 2.238281 -8.976562 2.71875 -9.167969 C 1.589844 -6.957031 0.722656 -4.597656 0.722656 -3.054688 C 0.722656 -0.960938 1.203125 -0.675781 1.203125 -0.675781 L 2.816406 0.3125 C 2.816406 0.3125 5.390625 -0.675781 7.148438 -4.019531 C 7.773438 -5.078125 8.472656 -6.449219 8.472656 -7.652344 C 8.472656 -9.410156 7.414062 -9.699219 6.957031 -9.699219 C 6.59375 -9.699219 6.160156 -9.652344 5.753906 -9.554688 C 5.800781 -9.699219 5.921875 -9.890625 6.039062 -10.058594 C 6.957031 -10.589844 11.238281 -13.308594 11.238281 -14.921875 Z M 10.085938 -14.65625 C 10.085938 -13.816406 7.773438 -11.890625 6.617188 -11 C 8.304688 -13.476562 10.085938 -14.65625 10.085938 -14.65625 Z M 6.691406 -9.195312 C 7.675781 -9.195312 7.820312 -8.039062 7.820312 -7.652344 C 7.820312 -6.8125 7.125 -5.199219 6.066406 -3.632812 C 5.03125 -1.996094 3.273438 -0.960938 3.273438 -0.960938 C 3.273438 -0.960938 3.082031 -1.878906 3.539062 -3.5625 L 4.355469 -6.183594 C 4.621094 -7.171875 5.03125 -8.085938 5.414062 -8.882812 C 5.753906 -9.023438 6.257812 -9.195312 6.691406 -9.195312 Z M 6.691406 -9.195312 "/></g></g></g></svg>